<svg width="100" height="100" viewBox="0 0 100 100" fill="none" xmlns="http://www.w3.org/2000/svg">
<path d="M85.4167 45.8334H79.1667V29.1667C79.1667 24.5834 75.4167 20.8334 70.8333 20.8334H54.1667V14.5834C54.1667 8.83335 49.5 4.16669 43.75 4.16669C38 4.16669 33.3333 8.83335 33.3333 14.5834V20.8334H16.6667C12.0833 20.8334 8.375 24.5834 8.375 29.1667V45H14.5833C20.7917 45 25.8333 50.0417 25.8333 56.25C25.8333 62.4584 20.7917 67.5 14.5833 67.5H8.33334V83.3334C8.33334 87.9167 12.0833 91.6667 16.6667 91.6667H32.5V85.4167C32.5 79.2084 37.5417 74.1667 43.75 74.1667C49.9583 74.1667 55 79.2084 55 85.4167V91.6667H70.8333C75.4167 91.6667 79.1667 87.9167 79.1667 83.3334V66.6667H85.4167C91.1667 66.6667 95.8333 62 95.8333 56.25C95.8333 50.5 91.1667 45.8334 85.4167 45.8334Z" fill="#1F2F5C"/>
</svg>
