<svg width="100" height="100" viewBox="0 0 100 100" fill="none" xmlns="http://www.w3.org/2000/svg">
<path d="M74.2083 18.625C73.875 18.625 73.5417 18.5416 73.25 18.375C65.25 14.25 58.3333 12.5 50.0417 12.5C41.7917 12.5 33.9583 14.4583 26.8333 18.375C25.8333 18.9166 24.5833 18.5416 24 17.5416C23.4583 16.5416 23.8333 15.25 24.8333 14.7083C32.5833 10.5 41.0833 8.33331 50.0417 8.33331C58.9167 8.33331 66.6667 10.2916 75.1667 14.6666C76.2084 15.2083 76.5833 16.4583 76.0417 17.4583C75.6667 18.2083 74.9583 18.625 74.2083 18.625ZM14.5833 40.5C14.1667 40.5 13.75 40.375 13.375 40.125C12.4167 39.4583 12.2083 38.1666 12.875 37.2083C17 31.375 22.25 26.7916 28.5 23.5833C41.5833 16.8333 58.3333 16.7916 71.4583 23.5416C77.7083 26.75 82.9583 31.2916 87.0833 37.0833C87.75 38 87.5417 39.3333 86.5834 40C85.625 40.6666 84.3333 40.4583 83.6667 39.5C79.9167 34.25 75.1667 30.125 69.5417 27.25C57.5833 21.125 42.2917 21.125 30.375 27.2916C24.7083 30.2083 19.9583 34.375 16.2083 39.625C15.875 40.2083 15.25 40.5 14.5833 40.5ZM40.625 90.7916C40.0833 90.7916 39.5417 90.5833 39.1667 90.1666C35.5417 86.5416 33.5833 84.2083 30.7917 79.1666C27.9167 74.0416 26.4167 67.7916 26.4167 61.0833C26.4167 48.7083 37 38.625 50 38.625C63 38.625 73.5833 48.7083 73.5833 61.0833C73.5833 62.25 72.6667 63.1666 71.5 63.1666C70.3333 63.1666 69.4167 62.25 69.4167 61.0833C69.4167 51 60.7083 42.7916 50 42.7916C39.2917 42.7916 30.5833 51 30.5833 61.0833C30.5833 67.0833 31.9167 72.625 34.4583 77.125C37.125 81.9166 38.9583 83.9583 42.1667 87.2083C42.9583 88.0416 42.9583 89.3333 42.1667 90.1666C41.7083 90.5833 41.1667 90.7916 40.625 90.7916ZM70.5 83.0833C65.5417 83.0833 61.1667 81.8333 57.5833 79.375C51.375 75.1666 47.6667 68.3333 47.6667 61.0833C47.6667 59.9166 48.5833 59 49.75 59C50.9167 59 51.8333 59.9166 51.8333 61.0833C51.8333 66.9583 54.8333 72.5 59.9167 75.9166C62.875 77.9166 66.3333 78.875 70.5 78.875C71.5 78.875 73.1667 78.75 74.8333 78.4583C75.9583 78.25 77.0417 79 77.25 80.1666C77.4584 81.2916 76.7083 82.375 75.5417 82.5833C73.1667 83.0416 71.0833 83.0833 70.5 83.0833ZM62.125 91.6666C61.9583 91.6666 61.75 91.625 61.5833 91.5833C54.9583 89.75 50.625 87.2916 46.0833 82.8333C40.25 77.0416 37.0417 69.3333 37.0417 61.0833C37.0417 54.3333 42.7917 48.8333 49.875 48.8333C56.9583 48.8333 62.7083 54.3333 62.7083 61.0833C62.7083 65.5416 66.5833 69.1666 71.375 69.1666C76.1667 69.1666 80.0417 65.5416 80.0417 61.0833C80.0417 45.375 66.5 32.625 49.8333 32.625C38 32.625 27.1667 39.2083 22.2917 49.4166C20.6667 52.7916 19.8333 56.75 19.8333 61.0833C19.8333 64.3333 20.125 69.4583 22.625 76.125C23.0417 77.2083 22.5 78.4166 21.4167 78.7916C20.3333 79.2083 19.125 78.625 18.75 77.5833C16.7083 72.125 15.7083 66.7083 15.7083 61.0833C15.7083 56.0833 16.6667 51.5416 18.5417 47.5833C24.0833 35.9583 36.375 28.4166 49.8333 28.4166C68.7917 28.4166 84.2083 43.0416 84.2083 61.0416C84.2083 67.7916 78.4583 73.2916 71.375 73.2916C64.2917 73.2916 58.5417 67.7916 58.5417 61.0416C58.5417 56.5833 54.6667 52.9583 49.875 52.9583C45.0833 52.9583 41.2083 56.5833 41.2083 61.0416C41.2083 68.1666 43.9583 74.8333 49 79.8333C52.9583 83.75 56.75 85.9166 62.625 87.5416C63.75 87.8333 64.375 89 64.0833 90.0833C63.875 91.0416 63 91.6666 62.125 91.6666Z" fill="#1F2F5C"/>
</svg>
