<svg width="636" height="490" viewBox="0 0 636 490" fill="none" xmlns="http://www.w3.org/2000/svg">
<path d="M504.472 33.1711C365.228 -18.929 293.972 16.0215 248.518 61.5546C203.065 107.088 187.63 137.056 136.451 142.127C85.272 147.199 37.7292 156.375 12.2951 223.477C-13.139 290.578 16.4743 344.612 62.2574 378.78L62.7613 379.142L548.229 378.906C585.909 369.712 623.565 359.317 630.991 264.592C630.991 264.592 643.716 85.2711 504.472 33.1711Z" fill="#5E9EFF"/>
<path opacity="0.7" d="M504.472 33.1711C365.227 -18.929 293.972 16.0215 248.518 61.5546C203.065 107.088 187.63 137.056 136.451 142.127C85.272 147.199 37.7292 156.375 12.2951 223.477C-13.139 290.578 16.4743 344.612 62.2574 378.78L62.7613 379.142L548.229 378.906C585.909 369.712 623.565 359.317 630.991 264.592C630.991 264.592 643.716 85.2711 504.472 33.1711Z" fill="white"/>
<path opacity="0.2" d="M238.338 389.017L325.838 372.702C325.838 372.702 345.633 435.16 349.625 443.239L347.535 448.14L348.852 456.345L261.896 476.119L254.925 470.622L238.338 389.017Z" fill="black" fill-opacity="0.7"/>
<path d="M319.481 366.008L234.895 386.034L254.921 470.621L339.507 450.594L319.481 366.008Z" fill="#A9BAE5"/>
<path opacity="0.2" d="M324.887 388.828L338.923 448.099L258.259 467.193C248.539 442.873 241.108 412.25 241.108 412.25L324.887 388.828Z" fill="black" fill-opacity="0.7"/>
<path d="M319.481 366.008L234.895 386.034L254.921 470.621L339.507 450.594L319.481 366.008Z" stroke="#263238" stroke-linecap="round" stroke-linejoin="round"/>
<path d="M342.152 445.204C321.009 450.21 291.066 454.913 273.006 457.568C263.599 458.947 257.328 459.762 257.328 459.762C249.323 445.13 234.879 386.038 234.879 386.038L319.462 366.013C319.629 366.734 319.776 367.455 319.933 368.166C330.018 413.87 342.152 445.204 342.152 445.204Z" fill="white"/>
<path opacity="0.4" d="M342.152 445.204C321.009 450.21 291.066 454.913 273.006 457.568C259.419 448.548 256.168 439.706 256.335 431.272C256.513 421.259 300.137 431.042 309.251 421.124C315.752 414.048 315.522 384.021 319.953 368.166C330.018 413.87 342.152 445.204 342.152 445.204Z" fill="#A9BAE5"/>
<path d="M342.152 445.204C321.009 450.21 291.066 454.913 273.006 457.568C263.599 458.947 257.328 459.762 257.328 459.762C249.323 445.13 234.879 386.038 234.879 386.038L319.462 366.013C319.629 366.734 319.776 367.455 319.933 368.166C330.018 413.87 342.152 445.204 342.152 445.204Z" stroke="#263238" stroke-linecap="round" stroke-linejoin="round"/>
<path d="M249.176 398.831C250.324 397.493 251.7 396.371 253.242 395.518L254.496 398.737L258.875 397.148C260.338 396.615 262.011 395.925 262.523 394.472C263.328 396.385 266.108 396.061 268.083 395.434C281.759 391.031 295.729 387.598 309.889 385.16" stroke="#263238" stroke-linecap="round" stroke-linejoin="round"/>
<path d="M251.298 410.536C250.389 410.066 251.141 408.446 252.165 408.509C253.19 408.572 253.848 409.7 253.932 410.725C254.385 410.675 254.811 410.484 255.148 410.178C255.486 409.872 255.719 409.467 255.813 409.021L257.266 410.066C257.145 409.886 257.062 409.683 257.022 409.47C256.983 409.256 256.988 409.037 257.036 408.825C257.085 408.614 257.176 408.415 257.305 408.24C257.433 408.065 257.596 407.918 257.784 407.809C257.971 407.699 258.179 407.629 258.394 407.603C258.61 407.577 258.828 407.596 259.036 407.657C259.244 407.719 259.437 407.823 259.604 407.962C259.77 408.101 259.906 408.273 260.004 408.467C259.899 407.276 260.359 405.562 261.519 405.833C261.881 405.982 262.211 406.198 262.491 406.471C262.846 406.686 263.246 406.815 263.659 406.847C264.072 406.879 264.488 406.813 264.87 406.654C265.253 406.495 265.594 406.248 265.863 405.933C266.132 405.618 266.324 405.243 266.421 404.84C267.56 406.136 269.557 405.959 271.302 405.666L286.519 403.074C286.666 402.113 287.146 400.879 288.108 400.984C288.662 401.067 289.028 401.6 289.508 401.893C290.249 402.203 291.078 402.233 291.839 401.977C298.694 400.491 305.421 398.468 311.958 395.925" stroke="#263238" stroke-linecap="round" stroke-linejoin="round"/>
<path d="M256.545 423.862C258.577 424.04 260.624 423.758 262.533 423.036C262.196 422.322 262.11 421.515 262.29 420.746C262.471 419.977 262.906 419.293 263.526 418.803L265.366 419.984C272.773 419.808 280.136 418.791 287.314 416.953C290.522 416.138 293.699 415.145 296.866 414.152L314.905 408.53" stroke="#263238" stroke-linecap="round" stroke-linejoin="round"/>
<path opacity="0.2" d="M396.322 53.3682L394.639 53.4727C393.864 53.5626 393.083 53.3716 392.437 52.9344C391.79 52.4972 391.322 51.8427 391.117 51.0898C388.546 41.7358 379.14 36.4787 368.281 37.158C358.477 37.7642 348.141 43.9515 342.152 52.5007C341.416 53.6214 340.442 54.5653 339.298 55.2646C338.154 55.9639 336.869 56.4014 335.537 56.5455L327.175 57.068C326.034 57.1735 324.888 56.9095 323.908 56.3149C322.928 55.7203 322.164 54.8266 321.73 53.7654C318.354 45.7909 309.795 40.7847 299.981 41.3909C289.101 42.0597 277.855 48.5919 272.263 58.4581C271.821 59.2521 271.195 59.9279 270.436 60.4283C269.677 60.9286 268.809 61.2386 267.905 61.3322L266.223 61.4367C265.828 61.4802 265.458 61.6503 265.167 61.9216C264.877 62.1928 264.683 62.5507 264.613 62.9417L263.955 67.1223C263.914 67.2625 263.904 67.4096 263.924 67.5541C263.944 67.6986 263.994 67.8374 264.07 67.9614C264.147 68.0855 264.249 68.1921 264.369 68.2744C264.49 68.3566 264.626 68.4128 264.77 68.4392L266.797 69.0558C267.584 69.2898 268.264 69.7901 268.722 70.4709C269.179 71.1517 269.386 71.9706 269.306 72.787C268.595 86.1753 278.043 96.0101 291.494 95.1844C304.464 94.3797 316.808 83.9073 320.842 70.9998C321.183 69.9548 321.777 69.0107 322.573 68.2519C323.368 67.4932 324.339 66.9435 325.399 66.652C328.274 65.8944 331.266 65.6817 334.22 66.0249C335.161 66.1346 336.026 66.5943 336.644 67.3127C337.261 68.031 337.586 68.9555 337.554 69.9024C337.554 82.6009 346.782 91.7564 359.773 90.9516C373.245 90.1364 386.017 78.9638 389.591 65.3769C389.849 64.4363 390.322 63.5687 390.973 62.843C391.624 62.1173 392.436 61.5535 393.343 61.1963L395.611 60.3289C395.928 60.2209 396.211 60.0303 396.429 59.7767C396.648 59.5232 396.795 59.2159 396.855 58.8866L397.524 54.706C397.578 54.5328 397.587 54.3485 397.548 54.1712C397.51 53.9939 397.426 53.8296 397.304 53.6946C397.183 53.5596 397.029 53.4585 396.856 53.4013C396.684 53.3441 396.5 53.3327 396.322 53.3682ZM292.069 91.6519C279.527 92.4253 271.051 82.58 273.079 69.7038C275.106 56.8276 286.937 45.6655 299.448 44.9443C311.958 44.2232 320.466 54.0162 318.428 66.8924C316.389 79.7686 304.579 90.8784 292.069 91.6519ZM322.159 64.175C322.207 63.4782 322.228 62.7571 322.221 62.0116C322.234 61.7137 322.353 61.4302 322.556 61.2118C322.759 60.9935 323.033 60.8546 323.329 60.8201L338.296 59.9004C338.426 59.888 338.557 59.9097 338.676 59.9633C338.795 60.0168 338.898 60.1004 338.975 60.2058C339.052 60.3112 339.1 60.4349 339.115 60.5645C339.129 60.6942 339.11 60.8255 339.059 60.9455C338.829 61.6667 338.62 62.3878 338.432 63.1194C331.993 61.2486 325.566 62.9313 322.159 64.175ZM360.327 87.419C347.786 88.1924 339.31 78.3472 341.348 65.471C343.386 52.5948 355.196 41.4327 367.706 40.7115C380.216 39.9904 388.724 49.7834 386.696 62.6595C384.669 75.5357 372.869 86.6456 360.327 87.419Z" fill="black" fill-opacity="0.7"/>
<path d="M385.589 55.9707L289.686 68.7006C287.422 69.0013 285.245 69.7733 283.297 70.9668C281.35 72.1603 279.674 73.7488 278.378 75.6299L264.341 96.052C264.213 96.2418 264.128 96.4582 264.095 96.6851C264.061 96.912 264.079 97.1435 264.148 97.3624C264.216 97.5813 264.333 97.7821 264.489 97.9496C264.646 98.1172 264.838 98.2474 265.052 98.3304C265.992 98.692 267.027 98.7256 267.988 98.4259C268.95 98.1262 269.783 97.5107 270.351 96.6791L283.332 77.8665C284.104 76.7402 285.102 75.787 286.262 75.0672C287.423 74.3475 288.721 73.8771 290.073 73.6859L385.933 60.099L385.589 55.9707Z" fill="#263238"/>
<path d="M256.21 64.0392L352.928 62.4401C355.215 62.4079 357.483 62.8564 359.586 63.7566C361.689 64.6568 363.58 65.9886 365.135 67.6658L382.045 85.7886C382.201 85.9564 382.317 86.1574 382.384 86.3764C382.451 86.5954 382.468 86.8268 382.433 87.0531C382.398 87.2794 382.311 87.4948 382.181 87.6831C382.051 87.8714 381.879 88.0277 381.68 88.1402C380.805 88.639 379.787 88.8278 378.791 88.6761C377.795 88.5243 376.88 88.0409 376.193 87.3041L360.568 70.5818C359.633 69.5797 358.5 68.7834 357.24 68.2435C355.98 67.7037 354.622 67.4322 353.252 67.4463L256.43 68.1779L256.21 64.0392Z" fill="#263238"/>
<path d="M314.832 70.1947C316.024 70.4142 315.971 78.5559 313.275 81.3046C310.578 84.0534 307.819 77.3644 308.52 74.9606C309.22 72.5568 311.101 69.484 314.832 70.1947Z" fill="#A9BAE5" stroke="#263238" stroke-linecap="round" stroke-linejoin="round"/>
<path d="M331.638 69.1499C330.488 69.5262 331.544 77.5111 334.554 79.9881C337.564 82.4651 339.487 75.3999 338.494 73.111C337.501 70.8221 335.244 67.9898 331.638 69.1499Z" fill="#A9BAE5" stroke="#263238" stroke-linecap="round" stroke-linejoin="round"/>
<path opacity="0.5" d="M271.72 51.1421C276.779 46.8152 287.491 39.4469 299.218 46.4598C310.944 53.4728 314.989 61.0919 312.585 71.4074C310.181 81.723 302.792 95.5189 285.411 93.1151C268.031 90.7113 256.011 64.5827 271.72 51.1421Z" fill="#A9BAE5"/>
<path opacity="0.5" d="M340.104 47.808C345.162 43.4811 355.865 36.1024 367.591 43.1153C379.318 50.1283 383.373 57.7474 380.958 68.0629C378.544 78.3785 371.176 92.1744 353.785 89.7706C336.394 87.3668 324.385 61.1963 340.104 47.808Z" fill="#A9BAE5"/>
<path d="M387.585 54.5075L385.902 54.612C385.069 54.667 384.237 54.4779 383.509 54.0676C382.782 53.6574 382.189 53.0439 381.805 52.3022C377.144 43.2303 366.473 38.1509 355.593 38.8198C350.788 39.1332 346.142 40.6711 342.099 43.2872C338.056 45.9032 334.75 49.5104 332.495 53.7654C331.954 54.8717 331.133 55.8173 330.114 56.5084C329.094 57.1996 327.912 57.6123 326.684 57.7056L318.323 58.2177C317.09 58.2825 315.862 58.0221 314.761 57.4627C313.661 56.9032 312.726 56.0643 312.052 55.03C309.289 51.0858 305.562 47.9145 301.226 45.818C296.89 43.7215 292.09 42.7695 287.282 43.0527C276.402 43.732 266.442 50.0865 262.941 59.6705C262.65 60.453 262.137 61.1337 261.465 61.6293C260.793 62.1249 259.991 62.4139 259.157 62.461L257.475 62.5655C257.108 62.5897 256.765 62.7584 256.522 63.0346C256.279 63.3108 256.156 63.6721 256.179 64.0392L256.43 68.1257C256.451 68.4313 256.572 68.7215 256.774 68.9518C256.976 69.1821 257.248 69.3398 257.548 69.4008L259.743 69.986C260.594 70.2015 261.366 70.6568 261.966 71.2978C262.566 71.9388 262.97 72.7386 263.129 73.6022C264.126 79.9048 267.394 85.6248 272.318 89.6832C277.242 93.7417 283.481 95.858 289.858 95.633C296.235 95.408 302.309 92.8572 306.935 88.4619C311.561 84.0665 314.418 78.1304 314.968 71.7732C315.083 70.7863 315.495 69.8576 316.15 69.1108C316.806 68.364 317.673 67.8344 318.637 67.5927C321.505 66.8353 324.49 66.6226 327.437 66.9656C328.433 67.0935 329.367 67.5222 330.114 68.1944C330.861 68.8666 331.385 69.7504 331.617 70.7281C332.917 77.0005 336.476 82.5767 341.618 86.3973C346.76 90.2179 353.126 92.0166 359.506 91.4517C365.887 90.8867 371.838 87.9975 376.228 83.333C380.619 78.6684 383.143 72.5536 383.321 66.1504C383.368 65.277 383.664 64.4355 384.176 63.7259C384.687 63.0163 385.392 62.4684 386.205 62.1475L388.295 61.2904C388.585 61.1928 388.835 61.003 389.007 60.7502C389.178 60.4973 389.263 60.1952 389.247 59.8899L388.985 55.8034C388.966 55.4477 388.809 55.1133 388.548 54.8713C388.286 54.6293 387.941 54.4988 387.585 54.5075ZM290.303 91.8505C285.815 92.1299 281.346 91.0717 277.46 88.8098C273.575 86.548 270.447 83.1842 268.474 79.1442C266.501 75.1042 265.771 70.5697 266.376 66.1146C266.981 61.6594 268.895 57.484 271.874 54.1167C274.853 50.7495 278.764 48.3418 283.113 47.1984C287.461 46.0551 292.051 46.2275 296.301 47.6938C300.551 49.1601 304.271 51.8544 306.989 55.4357C309.707 59.0169 311.302 63.3242 311.571 67.8121C311.923 73.8165 309.883 79.716 305.898 84.2206C301.912 88.7252 296.305 91.4685 290.303 91.8505ZM314.759 65.1366C314.644 64.4259 314.508 63.7256 314.341 63.0463C314.309 62.9118 314.306 62.7718 314.334 62.6363C314.362 62.5008 314.419 62.3731 314.502 62.2623C314.585 62.1516 314.691 62.0604 314.813 61.9954C314.935 61.9304 315.07 61.8931 315.208 61.8862L330.175 60.956C330.316 60.9392 330.46 60.9547 330.594 61.0012C330.728 61.0478 330.851 61.1243 330.951 61.2249C331.052 61.3255 331.128 61.4477 331.175 61.5821C331.221 61.7166 331.237 61.8598 331.22 62.0011C331.147 62.6909 331.095 63.4016 331.063 64.0914C325.662 62.7458 319.975 63.111 314.79 65.1366H314.759ZM358.592 87.6176C354.105 87.897 349.636 86.8388 345.75 84.577C341.864 82.3152 338.737 78.9514 336.764 74.9114C334.791 70.8714 334.061 66.3369 334.666 61.8817C335.271 57.4266 337.184 53.2511 340.164 49.8839C343.143 46.5166 347.054 44.109 351.402 42.9656C355.751 41.8223 360.34 41.9947 364.591 43.461C368.841 44.9273 372.561 47.6216 375.279 51.2028C377.997 54.7841 379.592 59.0913 379.861 63.5793C380.216 69.5793 378.182 75.4758 374.202 79.9801C370.223 84.4845 364.622 87.2304 358.624 87.6176H358.592Z" fill="#757575" stroke="#263238" stroke-linecap="round" stroke-linejoin="round"/>
<path opacity="0.4" d="M273.58 83.8134C273.58 83.8134 265.219 72.7453 271.114 59.8901C276.434 48.3308 288.881 47.0139 294.786 49.4386L281.942 71.9301C283.123 66.4364 284.893 61.0858 287.219 55.9708C287.219 55.9708 275.869 67.4674 273.58 83.8134Z" fill="white"/>
<path opacity="0.4" d="M341.703 78.9639C341.703 78.9639 333.342 67.9062 339.236 55.0509C344.556 43.4812 357.004 42.1643 362.898 44.5995L350.012 67.0492C350.984 58.9911 355.342 51.1107 355.342 51.1107C355.342 51.1107 343.981 62.5969 341.703 78.9639Z" fill="white"/>
<path opacity="0.2" d="M96.5329 274.239L99.5638 287.857L103.023 272.441L93.9305 118.46H87.7327L96.5329 274.239Z" fill="black" fill-opacity="0.7"/>
<path d="M90.9936 116.589L99.5638 271.48L96.4284 284.22L91.8924 271.908L83.3013 117.007C83.2815 116.749 83.3133 116.49 83.3949 116.245C83.4765 115.999 83.6062 115.772 83.7766 115.578C83.9469 115.383 84.1544 115.224 84.3869 115.111C84.6193 114.997 84.8721 114.932 85.1304 114.917L88.9451 114.708C89.2039 114.694 89.4628 114.732 89.7067 114.819C89.9507 114.907 90.1746 115.042 90.3655 115.217C90.5563 115.393 90.7102 115.604 90.8181 115.84C90.926 116.075 90.9856 116.33 90.9936 116.589Z" fill="#A9BAE5"/>
<path opacity="0.2" d="M96.4074 284.22L91.8715 271.908L83.3013 117.007C83.2814 116.749 83.3132 116.49 83.3948 116.245C83.4764 115.999 83.6062 115.772 83.7766 115.578C83.9469 115.383 84.1544 115.224 84.3868 115.111C84.6193 114.997 84.8721 114.932 85.1303 114.917H85.6634L94.2962 270.947L96.4074 284.22Z" fill="black" fill-opacity="0.7"/>
<path d="M90.9936 116.589L99.5638 271.48L96.4284 284.22L91.8924 271.908L83.3013 117.007C83.2815 116.749 83.3133 116.49 83.3949 116.245C83.4765 115.999 83.6062 115.772 83.7766 115.578C83.9469 115.383 84.1544 115.224 84.3869 115.111C84.6193 114.997 84.8721 114.932 85.1304 114.917L88.9451 114.708C89.2039 114.694 89.4628 114.732 89.7067 114.819C89.9507 114.907 90.1746 115.042 90.3655 115.217C90.5563 115.393 90.7102 115.604 90.8181 115.84C90.926 116.075 90.9856 116.33 90.9936 116.589V116.589Z" stroke="#263238" stroke-linecap="round" stroke-linejoin="round"/>
<path d="M85.8097 117.635L94.1708 269.693C94.1802 269.866 94.2236 270.035 94.2986 270.191C94.3735 270.348 94.4786 270.487 94.6077 270.603C94.7368 270.719 94.8875 270.807 95.0511 270.865C95.2146 270.922 95.3879 270.946 95.5609 270.936H96.4806" fill="#A9BAE5"/>
<path d="M85.8097 117.635L94.1708 269.693C94.1802 269.866 94.2236 270.035 94.2986 270.191C94.3735 270.348 94.4786 270.487 94.6077 270.603C94.7368 270.719 94.8875 270.807 95.0511 270.865C95.2146 270.922 95.3879 270.946 95.5609 270.936H96.4806" stroke="#263238" stroke-linecap="round" stroke-linejoin="round"/>
<path opacity="0.2" d="M123.863 303.106L152.197 117.979C153.071 112.288 156.168 107.176 160.809 103.768C165.45 100.36 171.254 98.934 176.946 99.8042L449.008 141.453C451.827 141.883 454.533 142.864 456.972 144.34C459.412 145.816 461.536 147.758 463.225 150.055C464.914 152.353 466.134 154.96 466.814 157.729C467.495 160.498 467.624 163.373 467.193 166.192L438.849 351.318C438.422 354.138 437.442 356.847 435.967 359.288C434.492 361.729 432.55 363.856 430.253 365.546C427.955 367.236 425.347 368.456 422.577 369.137C419.807 369.818 416.93 369.946 414.111 369.514L142.038 327.855C136.347 326.982 131.235 323.884 127.827 319.243C124.419 314.602 122.993 308.798 123.863 303.106Z" fill="black" fill-opacity="0.7"/>
<path d="M145.698 124.944L147.85 110.883C147.892 110.609 148.041 110.363 148.264 110.199C148.488 110.035 148.767 109.967 149.041 110.008L154.971 110.916L152.505 127.033L146.575 126.125C146.303 126.083 146.058 125.936 145.894 125.715C145.73 125.494 145.659 125.217 145.698 124.944Z" fill="#A9BAE5" stroke="#263238" stroke-linecap="round" stroke-linejoin="round"/>
<path d="M182.534 95.3303L196.595 97.4819C196.869 97.5239 197.115 97.6729 197.279 97.8963C197.443 98.1197 197.512 98.3991 197.47 98.6731L196.563 104.603L180.446 102.137L181.354 96.2069C181.395 95.9347 181.543 95.6899 181.764 95.5258C181.985 95.3616 182.262 95.2914 182.534 95.3303Z" fill="#A9BAE5" stroke="#263238" stroke-linecap="round" stroke-linejoin="round"/>
<path d="M201.698 98.2573L215.758 100.409C216.032 100.451 216.279 100.6 216.443 100.823C216.607 101.047 216.675 101.326 216.634 101.6L215.726 107.53L199.609 105.064L200.517 99.1339C200.559 98.8617 200.706 98.6169 200.927 98.4528C201.148 98.2887 201.425 98.2184 201.698 98.2573Z" fill="#A9BAE5" stroke="#263238" stroke-linecap="round" stroke-linejoin="round"/>
<path d="M120.728 298.925L149.062 113.799C149.935 108.107 153.033 102.996 157.674 99.5873C162.315 96.1791 168.119 94.7534 173.811 95.6235L445.872 137.273C448.691 137.702 451.397 138.683 453.837 140.159C456.276 141.635 458.401 143.577 460.09 145.875C461.778 148.172 462.998 150.779 463.679 153.548C464.36 156.317 464.489 159.193 464.058 162.011L435.714 347.138C435.286 349.958 434.307 352.666 432.832 355.107C431.357 357.549 429.415 359.675 427.117 361.365C424.82 363.055 422.211 364.276 419.441 364.956C416.671 365.637 413.794 365.766 410.975 365.334L138.903 323.674C133.212 322.801 128.1 319.703 124.692 315.062C121.284 310.421 119.858 304.617 120.728 298.925Z" fill="#A9BAE5" stroke="#263238" stroke-linecap="round" stroke-linejoin="round"/>
<path d="M412.041 363.024L138.569 321.166C136.157 320.799 133.842 319.96 131.755 318.697C129.668 317.434 127.851 315.773 126.406 313.807C124.962 311.842 123.919 309.611 123.338 307.242C122.756 304.873 122.647 302.413 123.017 300.002L151.57 113.454C152.315 108.585 154.963 104.212 158.932 101.295C162.901 98.3786 167.866 97.1582 172.734 97.9021L446.217 139.76C451.086 140.51 455.458 143.161 458.373 147.131C461.289 151.101 462.51 156.065 461.769 160.935L433.216 347.472C432.847 349.884 432.007 352.2 430.743 354.286C429.48 356.373 427.817 358.191 425.851 359.635C423.884 361.079 421.652 362.122 419.283 362.704C416.914 363.285 414.453 363.394 412.041 363.024Z" fill="#757575" stroke="#263238" stroke-linecap="round" stroke-linejoin="round"/>
<path d="M141.892 207.433C141.857 207.635 141.764 207.823 141.623 207.972C141.483 208.122 141.301 208.227 141.102 208.274C140.902 208.321 140.693 208.308 140.5 208.237C140.308 208.166 140.14 208.04 140.019 207.874C139.898 207.709 139.828 207.511 139.818 207.306C139.808 207.101 139.859 206.898 139.964 206.721C140.069 206.545 140.224 206.404 140.409 206.315C140.594 206.226 140.801 206.193 141.004 206.221C141.143 206.24 141.276 206.287 141.397 206.358C141.517 206.43 141.622 206.525 141.705 206.639C141.788 206.752 141.847 206.88 141.879 207.017C141.912 207.153 141.916 207.295 141.892 207.433Z" fill="#999999" stroke="#263238" stroke-linecap="round" stroke-linejoin="round"/>
<path d="M141.38 217.163C141.275 217.675 140.977 218.127 140.548 218.426C140.119 218.724 139.592 218.846 139.075 218.767C138.559 218.688 138.092 218.413 137.772 218C137.452 217.587 137.303 217.067 137.356 216.547C137.462 216.035 137.76 215.583 138.188 215.285C138.617 214.986 139.145 214.864 139.661 214.943C140.178 215.022 140.644 215.297 140.964 215.71C141.284 216.123 141.433 216.644 141.38 217.163Z" fill="#263238"/>
<path d="M144.965 193.742C144.86 194.254 144.562 194.706 144.133 195.004C143.704 195.302 143.177 195.425 142.66 195.346C142.143 195.266 141.677 194.992 141.357 194.579C141.037 194.165 140.888 193.645 140.941 193.125C140.969 192.85 141.053 192.584 141.187 192.342C141.321 192.101 141.503 191.889 141.721 191.719C141.94 191.55 142.19 191.427 142.458 191.358C142.725 191.289 143.004 191.275 143.277 191.316C143.551 191.358 143.812 191.455 144.047 191.602C144.281 191.748 144.484 191.94 144.642 192.167C144.8 192.394 144.91 192.65 144.965 192.921C145.021 193.192 145.021 193.471 144.965 193.742Z" fill="#263238"/>
<path d="M139.802 223.738C139.757 224.028 139.628 224.298 139.429 224.514C139.231 224.731 138.973 224.883 138.688 224.953C138.403 225.023 138.104 225.007 137.828 224.907C137.553 224.806 137.313 224.627 137.139 224.39C136.965 224.154 136.866 223.871 136.852 223.578C136.839 223.285 136.913 222.995 137.065 222.743C137.217 222.492 137.44 222.292 137.706 222.168C137.971 222.043 138.268 222 138.558 222.044C138.751 222.074 138.936 222.141 139.103 222.242C139.27 222.343 139.416 222.476 139.531 222.633C139.647 222.79 139.73 222.969 139.777 223.158C139.823 223.348 139.832 223.545 139.802 223.738Z" fill="#263238"/>
<path d="M454.903 157.726L425.712 348.486C425.343 350.89 424.036 353.049 422.076 354.49C420.116 355.93 417.665 356.534 415.26 356.168L186.154 321.103L181.19 320.392L162.513 317.529L153.472 316.149L140.408 314.122L137.555 313.683C135.151 313.314 132.991 312.006 131.551 310.047C130.111 308.087 129.507 305.636 129.873 303.231L159.074 112.409C159.255 111.218 159.67 110.075 160.293 109.045C160.917 108.014 161.738 107.117 162.708 106.404C163.679 105.692 164.781 105.178 165.951 104.892C167.121 104.606 168.336 104.553 169.526 104.737L255.05 117.823L267.989 119.808L280.353 121.7L296.239 124.125L301.987 125.003L447.263 147.233C448.453 147.42 449.596 147.84 450.624 148.469C451.652 149.097 452.547 149.922 453.256 150.897C453.966 151.871 454.476 152.976 454.759 154.148C455.041 155.32 455.09 156.535 454.903 157.726Z" fill="#263238"/>
<g opacity="0.1">
<path opacity="0.1" d="M240.136 319.347L142.937 304.475C142.306 304.377 141.739 304.033 141.361 303.517C140.983 303.002 140.824 302.358 140.92 301.726L150.567 238.673C150.667 238.04 151.014 237.473 151.531 237.095C152.048 236.717 152.693 236.559 153.326 236.655L250.525 251.528C250.838 251.575 251.139 251.684 251.41 251.848C251.681 252.011 251.917 252.227 252.105 252.483C252.292 252.738 252.427 253.028 252.502 253.336C252.577 253.644 252.591 253.964 252.542 254.277L242.895 317.33C242.847 317.644 242.737 317.945 242.572 318.216C242.407 318.488 242.19 318.724 241.934 318.911C241.677 319.098 241.387 319.233 241.078 319.308C240.77 319.383 240.449 319.396 240.136 319.347ZM153.232 237.492C153.028 237.46 152.82 237.47 152.62 237.519C152.42 237.569 152.231 237.657 152.065 237.779C151.899 237.902 151.759 238.055 151.652 238.232C151.546 238.409 151.475 238.605 151.445 238.808L141.798 301.852C141.767 302.055 141.776 302.263 141.826 302.464C141.875 302.664 141.963 302.852 142.086 303.018C142.208 303.184 142.362 303.325 142.539 303.431C142.715 303.538 142.911 303.608 143.115 303.639L240.261 318.511C240.465 318.542 240.673 318.533 240.873 318.484C241.074 318.434 241.262 318.346 241.428 318.224C241.594 318.101 241.734 317.947 241.841 317.771C241.947 317.594 242.018 317.398 242.048 317.194L251.706 254.151C251.766 253.739 251.662 253.319 251.415 252.983C251.169 252.646 250.8 252.42 250.389 252.354L153.232 237.492Z" fill="white"/>
</g>
<path opacity="0.4" d="M182.548 275.65L204.308 287.993C206.612 283.768 207.683 278.98 207.399 274.176C207.114 269.371 205.485 264.743 202.699 260.819L182.548 275.65Z" fill="#A9BAE5"/>
<path opacity="0.6" d="M182.757 274.406L202.197 260.119C199.57 256.658 196.107 253.921 192.132 252.166L188.297 261.258L182.757 274.406Z" fill="#A9BAE5"/>
<path d="M186.07 250.368L182.705 272.316L191.359 251.8C189.652 251.136 187.879 250.656 186.07 250.368Z" fill="#A9BAE5"/>
<path opacity="0.1" d="M181.399 275.389L185.234 250.305C180.829 249.703 176.343 250.256 172.216 251.91C168.089 253.564 164.462 256.262 161.692 259.739C158.921 263.217 157.102 267.355 156.412 271.747C155.723 276.139 156.186 280.636 157.757 284.795L181.399 275.389Z" fill="white"/>
<path opacity="0.2" d="M177.887 301.057C182.958 301.833 188.146 301.071 192.781 298.871C197.415 296.671 201.285 293.134 203.89 288.714L181.744 276.172L158.061 285.526C159.751 289.601 162.464 293.171 165.937 295.892C169.41 298.612 173.526 300.391 177.887 301.057Z" fill="#A9BAE5"/>
<path d="M222.118 260.554L219.236 260.113C218.877 260.058 218.541 260.305 218.486 260.665L218.044 263.547C217.989 263.906 218.236 264.242 218.596 264.297L221.478 264.738C221.838 264.793 222.174 264.547 222.229 264.187L222.67 261.305C222.725 260.945 222.478 260.609 222.118 260.554Z" fill="#A9BAE5"/>
<path d="M237.784 264.53L225.19 262.596C225.127 262.587 225.066 262.566 225.011 262.533C224.956 262.5 224.908 262.456 224.87 262.405C224.832 262.353 224.805 262.295 224.79 262.232C224.775 262.17 224.772 262.105 224.783 262.042C224.792 261.979 224.813 261.918 224.846 261.863C224.879 261.808 224.922 261.76 224.974 261.722C225.025 261.684 225.084 261.656 225.146 261.641C225.209 261.627 225.273 261.624 225.337 261.635L237.878 263.568C237.942 263.577 238.003 263.598 238.058 263.631C238.113 263.664 238.161 263.708 238.199 263.759C238.237 263.811 238.264 263.869 238.279 263.932C238.294 263.994 238.296 264.059 238.286 264.122C238.264 264.238 238.201 264.343 238.109 264.417C238.018 264.492 237.902 264.532 237.784 264.53Z" fill="#A9BAE5"/>
<path d="M233.614 266.045L224.866 264.707C224.803 264.698 224.742 264.677 224.687 264.644C224.632 264.611 224.584 264.568 224.546 264.516C224.508 264.464 224.481 264.406 224.466 264.343C224.451 264.281 224.448 264.216 224.459 264.153C224.479 264.026 224.549 263.913 224.652 263.836C224.756 263.76 224.885 263.728 225.013 263.746L233.76 265.083C233.824 265.092 233.885 265.114 233.94 265.147C233.995 265.179 234.043 265.223 234.081 265.275C234.119 265.326 234.146 265.385 234.161 265.447C234.176 265.509 234.178 265.574 234.168 265.637C234.159 265.701 234.138 265.762 234.105 265.817C234.072 265.872 234.028 265.92 233.977 265.958C233.925 265.996 233.867 266.023 233.804 266.038C233.742 266.053 233.677 266.055 233.614 266.045Z" fill="#A9BAE5"/>
<path opacity="0.6" d="M220.687 269.919L217.805 269.478C217.445 269.423 217.109 269.67 217.054 270.029L216.613 272.911C216.558 273.271 216.805 273.607 217.164 273.662L220.047 274.103C220.406 274.158 220.742 273.911 220.797 273.552L221.238 270.669C221.293 270.31 221.046 269.974 220.687 269.919Z" fill="#A9BAE5"/>
<path d="M236.352 273.884L223.748 271.961C223.622 271.938 223.51 271.867 223.434 271.764C223.359 271.661 223.325 271.534 223.34 271.407C223.361 271.28 223.43 271.166 223.534 271.09C223.638 271.014 223.767 270.981 223.894 270.999L236.499 272.933C236.561 272.942 236.621 272.964 236.675 272.997C236.729 273.03 236.776 273.073 236.814 273.124C236.851 273.175 236.878 273.232 236.893 273.294C236.908 273.355 236.911 273.419 236.901 273.481C236.891 273.544 236.87 273.604 236.837 273.658C236.804 273.712 236.761 273.759 236.71 273.796C236.659 273.833 236.601 273.86 236.54 273.875C236.479 273.89 236.415 273.893 236.352 273.884Z" fill="#A9BAE5"/>
<path d="M232.182 275.389L223.413 274.051C223.3 274.017 223.203 273.943 223.14 273.843C223.077 273.743 223.052 273.624 223.07 273.507C223.087 273.39 223.147 273.283 223.237 273.207C223.327 273.13 223.442 273.088 223.56 273.089L232.308 274.427C232.371 274.436 232.432 274.458 232.487 274.49C232.542 274.523 232.59 274.567 232.628 274.618C232.666 274.67 232.693 274.729 232.708 274.791C232.723 274.853 232.726 274.918 232.715 274.981C232.697 275.105 232.631 275.217 232.532 275.293C232.432 275.369 232.307 275.404 232.182 275.389Z" fill="#A9BAE5"/>
<path opacity="0.4" d="M219.909 279.479L217.022 279.042C216.662 278.987 216.326 279.235 216.271 279.595L215.834 282.482C215.78 282.842 216.027 283.178 216.387 283.232L219.274 283.67C219.634 283.724 219.97 283.476 220.025 283.116L220.462 280.23C220.517 279.87 220.269 279.534 219.909 279.479Z" fill="#A9BAE5"/>
<path d="M234.91 283.248L222.368 281.325C222.255 281.291 222.158 281.217 222.095 281.117C222.032 281.017 222.007 280.898 222.024 280.781C222.042 280.664 222.102 280.557 222.192 280.48C222.282 280.404 222.396 280.362 222.515 280.363L235.056 282.286C235.12 282.295 235.181 282.317 235.236 282.35C235.291 282.382 235.339 282.426 235.377 282.478C235.415 282.529 235.442 282.588 235.457 282.65C235.472 282.712 235.474 282.777 235.464 282.84C235.455 282.904 235.434 282.965 235.401 283.02C235.368 283.075 235.324 283.123 235.273 283.161C235.221 283.199 235.163 283.226 235.1 283.241C235.038 283.256 234.973 283.258 234.91 283.248Z" fill="#A9BAE5"/>
<path d="M230.729 284.753L221.982 283.415C221.868 283.381 221.771 283.307 221.708 283.207C221.645 283.107 221.62 282.988 221.638 282.871C221.655 282.754 221.715 282.647 221.805 282.571C221.895 282.494 222.01 282.453 222.128 282.454L230.876 283.791C230.989 283.826 231.086 283.899 231.149 283.999C231.213 284.099 231.238 284.219 231.22 284.336C231.202 284.453 231.143 284.559 231.052 284.636C230.962 284.712 230.848 284.754 230.729 284.753Z" fill="#A9BAE5"/>
<path opacity="0.2" d="M217.824 288.647L214.942 288.206C214.582 288.151 214.246 288.398 214.191 288.757L213.75 291.64C213.695 291.999 213.942 292.335 214.302 292.39L217.184 292.831C217.544 292.886 217.879 292.639 217.934 292.28L218.376 289.398C218.431 289.038 218.184 288.702 217.824 288.647Z" fill="#A9BAE5"/>
<path d="M233.478 292.612L220.936 290.689C220.81 290.669 220.696 290.599 220.62 290.496C220.543 290.392 220.511 290.263 220.529 290.135C220.538 290.072 220.559 290.011 220.592 289.956C220.625 289.901 220.668 289.853 220.72 289.815C220.772 289.777 220.83 289.75 220.893 289.735C220.955 289.72 221.02 289.717 221.083 289.728L233.677 291.651C233.74 291.66 233.801 291.681 233.856 291.714C233.911 291.747 233.959 291.79 233.997 291.842C234.035 291.894 234.062 291.952 234.077 292.015C234.092 292.077 234.095 292.142 234.084 292.205C234.076 292.274 234.053 292.34 234.017 292.399C233.981 292.459 233.933 292.509 233.875 292.548C233.817 292.587 233.752 292.613 233.684 292.624C233.615 292.635 233.545 292.631 233.478 292.612Z" fill="#A9BAE5"/>
<path d="M229.319 294.118L220.571 292.78C220.507 292.771 220.446 292.749 220.391 292.717C220.336 292.684 220.288 292.64 220.25 292.589C220.212 292.537 220.185 292.478 220.17 292.416C220.155 292.354 220.153 292.289 220.163 292.226C220.172 292.162 220.193 292.101 220.226 292.046C220.259 291.991 220.303 291.944 220.354 291.906C220.406 291.868 220.464 291.84 220.527 291.825C220.589 291.81 220.654 291.808 220.717 291.818L229.465 293.156C229.592 293.177 229.706 293.246 229.782 293.35C229.858 293.453 229.891 293.583 229.872 293.71C229.864 293.774 229.842 293.835 229.809 293.89C229.776 293.945 229.733 293.993 229.681 294.03C229.63 294.068 229.571 294.096 229.509 294.111C229.446 294.126 229.382 294.128 229.319 294.118Z" fill="#A9BAE5"/>
<path opacity="0.1" d="M216.393 298.022L213.511 297.581C213.151 297.526 212.815 297.772 212.76 298.132L212.319 301.014C212.264 301.374 212.511 301.71 212.87 301.765L215.753 302.206C216.112 302.261 216.448 302.014 216.503 301.655L216.944 298.772C216.999 298.413 216.752 298.077 216.393 298.022Z" fill="white"/>
<path d="M232.046 301.977L219.505 300.054C219.378 300.033 219.264 299.964 219.188 299.86C219.111 299.757 219.079 299.627 219.097 299.5C219.106 299.436 219.127 299.375 219.16 299.32C219.193 299.265 219.237 299.217 219.288 299.179C219.34 299.142 219.398 299.114 219.461 299.099C219.523 299.084 219.588 299.082 219.651 299.092L232.245 301.015C232.308 301.024 232.369 301.046 232.424 301.079C232.479 301.111 232.527 301.155 232.565 301.207C232.603 301.258 232.631 301.317 232.646 301.379C232.661 301.441 232.663 301.506 232.653 301.569C232.645 301.638 232.622 301.705 232.586 301.764C232.549 301.823 232.501 301.874 232.443 301.913C232.386 301.951 232.32 301.977 232.252 301.988C232.183 301.999 232.113 301.995 232.046 301.977Z" fill="#A9BAE5"/>
<path d="M227.887 303.482L219.128 302.144C219.066 302.134 219.006 302.112 218.952 302.078C218.898 302.045 218.852 302.001 218.815 301.95C218.778 301.898 218.751 301.84 218.737 301.778C218.723 301.717 218.721 301.653 218.731 301.59C218.739 301.526 218.759 301.464 218.792 301.409C218.824 301.353 218.868 301.304 218.92 301.266C218.972 301.228 219.031 301.201 219.094 301.186C219.157 301.172 219.222 301.171 219.285 301.183L228.033 302.52C228.103 302.521 228.173 302.537 228.236 302.567C228.3 302.596 228.357 302.64 228.402 302.693C228.448 302.747 228.482 302.81 228.501 302.877C228.52 302.945 228.525 303.016 228.514 303.086C228.503 303.155 228.478 303.222 228.439 303.28C228.401 303.339 228.35 303.389 228.291 303.427C228.231 303.464 228.164 303.489 228.095 303.498C228.025 303.508 227.954 303.502 227.887 303.482Z" fill="#A9BAE5"/>
<g opacity="0.1">
<path opacity="0.1" d="M423.203 277.939L265.219 253.764C264.586 253.668 263.941 253.826 263.424 254.204C262.907 254.582 262.56 255.149 262.46 255.781L261.791 260.129L261.666 260.965L260.767 266.829L260.642 267.665L259.743 273.518L259.617 274.343L258.718 280.207L258.593 281.032L257.694 286.895L257.569 287.732L256.67 293.584L256.545 294.42L255.646 300.273L255.52 301.109L254.621 306.962L254.496 307.798L253.597 313.651L253.472 314.487L252.813 318.835C252.764 319.149 252.778 319.469 252.852 319.777C252.927 320.086 253.062 320.377 253.25 320.633C253.437 320.889 253.673 321.106 253.944 321.271C254.216 321.436 254.517 321.546 254.831 321.594L412.783 345.768C413.415 345.861 414.058 345.7 414.571 345.32C415.084 344.94 415.426 344.372 415.521 343.741L416.19 339.393L416.316 338.557L417.215 332.704L417.34 331.868L418.239 326.005L418.364 325.179L419.263 319.326L419.389 318.49L420.287 312.637L420.413 311.801L421.312 305.938L421.437 305.112L422.336 299.249L422.461 298.423L423.36 292.571L423.485 291.734L424.384 285.871L424.51 285.035L425.179 280.687C425.276 280.062 425.123 279.423 424.753 278.909C424.384 278.395 423.827 278.046 423.203 277.939ZM414.738 343.615C414.673 344.026 414.449 344.395 414.115 344.641C413.78 344.888 413.362 344.992 412.95 344.932L255.008 320.758C254.595 320.694 254.224 320.469 253.975 320.132C253.727 319.796 253.621 319.375 253.681 318.96L254.35 314.613L415.396 339.268L414.738 343.615ZM415.532 338.39L254.475 313.745L255.374 307.882L416.42 332.537L415.532 338.39ZM416.577 331.701L255.499 307.098L256.398 301.235L417.445 325.879L416.577 331.701ZM417.622 325.012L256.565 300.357L257.464 294.504L418.511 319.149L417.622 325.012ZM418.667 318.323L257.611 293.668L258.509 287.815L419.556 312.47L418.667 318.323ZM419.713 311.634L258.656 286.979L259.555 281.116L420.601 305.771L419.713 311.634ZM420.758 304.935L259.701 280.29L260.6 274.437L421.646 299.082L420.758 304.935ZM421.803 298.246L260.621 273.643L261.519 267.79L422.566 292.435L421.803 298.246ZM422.848 291.567L261.645 266.954L262.544 261.091L423.59 285.746L422.848 291.567ZM262.826 260.213L263.495 255.876C263.525 255.672 263.596 255.476 263.702 255.299C263.809 255.123 263.949 254.969 264.115 254.846C264.281 254.724 264.47 254.636 264.67 254.586C264.87 254.537 265.078 254.528 265.282 254.559L423.036 278.775C423.446 278.839 423.814 279.063 424.059 279.398C424.304 279.733 424.406 280.152 424.343 280.562L423.674 284.91L262.826 260.213Z" fill="white"/>
</g>
<g opacity="0.1">
<path opacity="0.1" d="M440.072 165.418L170.926 124.219C170.569 124.164 170.204 124.18 169.852 124.266C169.501 124.353 169.17 124.508 168.879 124.722C168.588 124.937 168.342 125.207 168.155 125.517C167.968 125.827 167.844 126.171 167.791 126.528L152.709 225.054C152.601 225.774 152.782 226.508 153.213 227.096C153.644 227.683 154.289 228.076 155.009 228.19L424.165 269.389C424.885 269.497 425.619 269.316 426.206 268.886C426.794 268.455 427.187 267.809 427.3 267.09L442.382 168.554C442.437 168.196 442.42 167.831 442.334 167.48C442.247 167.128 442.092 166.798 441.878 166.506C441.663 166.215 441.393 165.969 441.083 165.782C440.773 165.595 440.43 165.472 440.072 165.418ZM220.592 179.58L239.279 182.433L237.648 193.052L218.93 190.188L220.592 179.58ZM218.135 190.031L199.375 187.22L201.006 176.591L219.724 179.454L218.135 190.031ZM240.136 182.579L258.865 185.443L257.234 196.072L238.516 193.209L240.136 182.579ZM337.209 196.584L318.49 193.721L320.11 183.092L338.839 185.955L337.209 196.584ZM339.665 186.133L358.394 188.997L356.763 199.626L338.045 196.762L339.665 186.133ZM279.245 188.62L297.974 191.484L296.344 202.113L277.594 199.155L279.245 188.62ZM276.789 199.072L258.07 196.208L259.659 185.569L278.388 188.432L276.789 199.072ZM298.8 191.568L317.476 194.421L315.846 205.05L297.128 202.186L298.8 191.568ZM318.354 194.557L337.083 197.421L335.453 208.05L316.734 205.186L318.354 194.557ZM317.654 193.595L298.936 190.732L300.556 180.102L319.285 182.977L317.654 193.595ZM298.099 190.606L279.381 187.742L281.001 177.113L299.709 179.967L298.099 190.606ZM278.513 187.659L259.795 184.785L261.415 174.072L280.144 176.936L278.513 187.659ZM258.948 184.607L240.23 181.743L241.85 171.114L260.579 173.978L258.948 184.607ZM257.067 196.908L255.447 207.517L236.729 204.653L238.359 194.024L257.067 196.908ZM257.903 197.034L276.622 199.898L274.991 210.527L256.273 207.663L257.903 197.034ZM277.458 200.023L296.176 202.887L294.546 213.516L275.838 210.652L277.458 200.023ZM297.013 203.012L315.731 205.886L314.101 216.505L295.382 213.641L297.013 203.012ZM316.567 206.012L335.286 208.875L333.655 219.504L314.937 216.641L316.567 206.012ZM336.122 209.001L354.84 211.864L353.21 222.494L334.491 219.63L336.122 209.001ZM336.247 208.175L337.867 197.546L356.596 200.41L354.966 211.039L336.247 208.175ZM357.422 200.535L376.151 203.399L374.52 214.028L355.802 211.164L357.422 200.535ZM376.977 203.524L395.706 206.398L394.075 217.017L375.357 214.153L376.977 203.524ZM377.112 202.699L378.732 192.069L397.472 194.975L395.862 205.562L377.112 202.699ZM376.276 202.573L357.558 199.699L359.178 189.07L377.907 191.944L376.276 202.573ZM359.282 188.244L360.913 177.615L379.631 180.479L378.095 191.108L359.282 188.244ZM358.457 188.119L339.738 185.245L341.358 174.626L360.077 177.49L358.457 188.119ZM338.902 185.119L320.173 182.255L321.803 171.626L340.522 174.49L338.902 185.119ZM319.347 182.13L300.65 179.298L302.28 168.669L320.999 171.532L319.347 182.13ZM299.793 179.13L281.105 176.267L282.725 165.638L301.444 168.512L299.793 179.13ZM280.269 176.162L261.551 173.299L263.129 162.649L281.942 165.512L280.269 176.162ZM260.715 173.173L241.986 170.309L243.616 159.68L262.335 162.575L260.715 173.173ZM241.181 170.153L222.462 167.289L224.082 156.66L242.801 159.534L241.181 170.153ZM241.056 170.989L239.425 181.618L220.707 178.754L222.327 168.125L241.056 170.989ZM219.87 178.629L201.152 175.755L202.772 165.126L221.501 168L219.87 178.629ZM200.316 175.629L181.608 172.766L183.228 162.136L201.957 165L200.316 175.629ZM200.19 176.465L198.56 187.094L179.841 184.231L181.472 173.602L200.19 176.465ZM198.435 187.962L196.804 198.591L178.086 195.727L179.716 185.098L198.435 187.962ZM199.271 188.098L217.989 190.962L216.359 201.591L197.64 198.716L199.271 188.098ZM218.825 191.087L237.523 193.93L235.892 204.559L217.143 201.674L218.825 191.087ZM235.767 205.426L234.137 216.055L215.418 213.181L217.049 202.552L235.767 205.426ZM236.603 205.552L255.322 208.415L253.723 219.013L234.994 216.15L236.603 205.552ZM256.158 208.541L274.876 211.405L273.246 222.034L254.527 219.17L256.158 208.541ZM275.671 211.488L294.483 214.352L292.853 224.981L274.082 222.149L275.671 211.488ZM295.225 214.477L313.944 217.341L312.313 227.97L293.595 225.106L295.225 214.477ZM314.78 217.466L333.499 220.341L331.868 230.959L313.15 228.096L314.78 217.466ZM334.335 220.466L353.053 223.33L351.423 233.959L332.704 231.095L334.335 220.466ZM353.889 223.455L372.65 226.329L371.019 236.958L352.301 234.095L353.889 223.455ZM354.015 222.619L355.645 212L374.406 214.833L372.775 225.462L354.015 222.619ZM375.2 214.989L393.918 217.853L392.288 228.482L373.569 225.619L375.2 214.989ZM394.817 217.968L413.536 220.832L411.905 231.461L393.187 228.597L394.817 217.968ZM394.943 217.142L396.563 206.513L415.292 209.377L413.63 220.058L394.943 217.142ZM396.698 205.646L398.318 195.017L417.047 197.88L415.396 208.562L396.698 205.646ZM398.444 194.149L400.043 183.604L418.761 186.467L417.152 197.065L398.444 194.149ZM397.618 194.013L378.889 191.15L380.52 180.521L399.217 183.478L397.618 194.013ZM380.645 179.695L382.275 169.149L400.973 171.982L399.353 182.611L380.645 179.695ZM379.819 179.559L361.09 176.695L362.721 166.066L381.439 168.94L379.819 179.559ZM360.265 176.57L341.515 173.79L343.145 163.161L361.864 166.024L360.265 176.57ZM340.71 173.581L321.981 170.717L323.611 160.088L342.33 162.952L340.71 173.581ZM321.155 170.581L302.405 167.801L304.036 157.172L322.754 160.036L321.155 170.581ZM301.601 167.592L282.872 164.728L284.481 154.214L303.2 157.078L301.601 167.592ZM282.025 164.666L263.296 161.792L264.927 151.173L283.645 154.037L282.025 164.666ZM262.471 161.666L243.742 158.802L245.361 148.194L264.09 151.079L262.471 161.666ZM242.916 158.677L224.187 155.813L225.817 145.184L244.536 148.048L242.916 158.677ZM223.413 155.698L204.601 152.835L206.231 142.206L224.95 145.08L223.413 155.698ZM223.278 156.534L221.658 167.164L202.939 164.3L204.559 153.671L223.278 156.534ZM202.103 164.174L183.384 161.3L185.004 150.682L203.723 153.545L202.103 164.174ZM182.548 161.175L163.83 158.311L165.45 147.682L184.179 150.546L182.548 161.175ZM182.423 162.011L180.792 172.64L162.074 169.776L163.694 159.147L182.423 162.011ZM180.667 173.508L179.037 184.137L160.318 181.273L161.948 170.644L180.667 173.508ZM178.911 185.004L177.281 195.633L158.562 192.77L160.193 182.141L178.911 185.004ZM177.155 196.501L175.535 207.119L156.806 204.256L158.437 193.627L177.155 196.501ZM177.991 196.626L196.71 199.49L195.09 210.119L176.361 207.255L177.991 196.626ZM197.546 199.615L216.265 202.479L214.634 213.108L195.916 210.244L197.546 199.615ZM214.509 213.944L212.889 224.573L194.149 221.605L195.78 210.976L214.509 213.944ZM215.345 214.07L234.063 216.933L232.444 227.562L213.715 224.699L215.345 214.07ZM234.847 216.923L253.566 219.797L251.946 230.416L233.217 227.552L234.847 216.923ZM254.402 219.922L273.121 222.786L271.49 233.447L252.761 230.583L254.402 219.922ZM273.957 222.912L292.675 225.775L291.055 236.404L272.326 233.541L273.957 222.912ZM293.511 225.911L312.251 228.806L310.631 239.435L291.902 236.561L293.511 225.911ZM313.066 228.9L331.785 231.764L330.165 242.393L311.436 239.529L313.066 228.9ZM332.621 231.889L351.339 234.753L349.719 245.382L330.99 242.519L332.621 231.889ZM352.175 234.889L370.894 237.826L369.274 248.455L350.545 245.591L352.175 234.889ZM371.73 237.878L390.448 240.742L388.828 251.413L370.1 248.549L371.73 237.878ZM371.855 237.042L373.486 226.413L392.204 229.287L390.574 239.916L371.855 237.042ZM393.04 229.465L411.759 232.328L410.129 242.957L391.41 240.094L393.04 229.465ZM412.585 232.433L431.303 235.297L429.673 245.926L410.965 243.052L412.585 232.433ZM412.71 231.607L414.34 220.978L433.059 223.842L431.397 234.471L412.71 231.607ZM414.466 220.111L416.086 209.481L434.815 212.345L433.184 222.974L414.466 220.111ZM416.222 208.614L417.81 198.11L436.623 200.922L435.003 211.551L416.222 208.614ZM417.967 197.117L419.608 186.614L438.327 189.477L436.707 200.107L417.967 197.117ZM419.723 185.621L421.364 175.117L440.082 177.981L438.462 188.61L419.723 185.621ZM418.897 185.495L400.168 182.632L401.799 172.003L420.517 174.866L418.897 185.495ZM401.924 171.166L403.555 160.548L422.273 163.412L420.643 174.041L401.924 171.166ZM401.088 171.041L382.37 168.177L384 157.548L402.718 160.412L401.088 171.041ZM381.533 168.052L362.815 165.188L364.508 154.695L383.227 157.559L381.533 168.052ZM361.979 165.063L343.26 162.189L344.891 151.57L363.609 154.434L361.979 165.063ZM342.424 162.063L323.747 159.335L325.378 148.706L344.096 151.57L342.424 162.063ZM322.869 159.074L304.161 156.305L305.792 145.675L324.51 148.539L322.869 159.074ZM303.315 156.075L284.596 153.211L286.237 142.718L304.935 145.592L303.315 156.075ZM283.771 153.085L265.042 150.222L266.672 139.593L285.391 142.456L283.771 153.085ZM264.216 150.096L245.487 147.222L247.117 136.604L265.846 139.582L264.216 150.096ZM244.651 147.097L225.932 144.233L227.594 133.74L246.313 136.604L244.651 147.097ZM225.107 144.108L206.378 141.244L208.008 130.615L226.727 133.479L225.107 144.108ZM205.552 141.119L186.833 138.38L188.464 127.762L207.182 130.625L205.552 141.119ZM205.416 141.944L203.796 152.573L185.067 149.71L186.698 139.081L205.416 141.944ZM184.241 149.584L165.523 146.898L167.153 136.269L185.872 139.133L184.241 149.584ZM156.629 204.987L175.337 207.851L173.717 218.48L154.988 215.616L156.629 204.987ZM176.183 207.976L194.902 210.84L193.282 221.469L174.553 218.606L176.183 207.976ZM193.104 222.305L191.484 232.935L172.766 230.071L174.386 219.442L193.104 222.305ZM193.94 222.431L212.701 225.284L211.081 235.913L192.362 233.049L193.94 222.431ZM213.495 225.43L232.214 228.294L230.594 238.923L211.917 236.049L213.495 225.43ZM233.091 228.42L251.81 231.283L250.19 241.912L231.461 239.049L233.091 228.42ZM252.678 231.409L271.396 234.283L269.776 244.901L251.026 242.006L252.678 231.409ZM272.232 234.408L290.951 237.272L289.258 247.901L270.539 245.037L272.232 234.408ZM291.787 237.397L310.505 240.261L308.885 250.89L290.156 248.026L291.787 237.397ZM311.341 240.386L330.018 243.261L328.398 253.879L309.669 251.016L311.341 240.386ZM330.896 243.386L349.615 246.25L347.995 256.879L329.266 254.015L330.896 243.386ZM350.451 246.375L369.169 249.239L367.549 259.868L348.831 257.004L350.451 246.375ZM370.005 249.375L388.724 252.238L387.073 262.909L368.344 260.035L370.005 249.375ZM389.56 252.364L408.279 255.227L406.659 265.857L387.93 262.993L389.56 252.364ZM389.686 251.528L391.316 240.899L410.034 243.773L408.404 254.391L389.686 251.528ZM410.871 243.898L429.589 246.762L427.969 257.391L409.209 254.548L410.871 243.898ZM441.577 168.428L440.208 177.207L421.489 174.344L423.12 163.715L439.947 166.286C440.44 166.363 440.884 166.631 441.183 167.031C441.481 167.432 441.612 167.933 441.546 168.428H441.577ZM170.884 125.055L187.711 127.626L186.091 138.255L167.279 135.402L168.617 126.664C168.654 126.415 168.739 126.175 168.869 125.959C168.999 125.743 169.171 125.555 169.374 125.405C169.577 125.255 169.807 125.148 170.052 125.087C170.297 125.027 170.552 125.016 170.801 125.055H170.884ZM153.619 225.18L154.956 216.442L173.675 219.316L172.055 229.935L155.134 227.374C154.631 227.295 154.181 227.019 153.881 226.607C153.581 226.196 153.457 225.683 153.535 225.18H153.619ZM424.29 268.564L407.453 265.982L409.083 255.353L427.802 258.217L426.464 266.964C426.387 267.464 426.115 267.913 425.707 268.213C425.3 268.512 424.79 268.639 424.29 268.564Z" fill="white"/>
</g>
<path opacity="0.5" d="M431.188 236.133L426.464 266.944C426.428 267.182 426.346 267.411 426.221 267.618C426.097 267.824 425.933 268.004 425.739 268.147C425.544 268.289 425.324 268.392 425.09 268.45C424.855 268.507 424.612 268.517 424.374 268.48L155.071 227.26C154.834 227.223 154.606 227.139 154.401 227.014C154.196 226.889 154.017 226.725 153.875 226.531C153.734 226.337 153.631 226.116 153.575 225.883C153.518 225.649 153.508 225.407 153.546 225.169L154.173 221.051C154.173 221.051 166.829 210.851 174.752 212.063C184.106 213.495 185.788 218.804 194.149 220.058C202.511 221.313 211.666 201.977 219.233 203.127C223.319 203.754 224.365 206.9 226.361 209.785C227.217 211.111 228.353 212.234 229.689 213.075C231.025 213.916 232.529 214.456 234.095 214.655L234.408 214.707C244.651 216.275 258.509 161.907 272.598 164.06C278.869 165.011 281.346 177.009 283.217 190.261C285.589 206.984 286.927 225.796 293.459 226.747C305.144 228.535 309.136 204.799 319.985 206.503C326.81 207.548 329.297 220.194 335.045 230.217C338.442 236.143 342.988 241.16 350.263 242.268C356.878 243.313 361.299 241.745 364.738 239.331C371.479 234.617 374.489 226.57 382.913 227.834C387.909 228.597 389.727 232.443 391.588 236.07C393.208 239.206 394.859 242.236 398.705 242.822C403.231 243.522 407.066 237.042 411.174 231.325C414.529 226.601 418.03 222.358 422.19 222.964C426.349 223.57 428.962 228.723 430.227 232.37C430.621 233.604 430.942 234.861 431.188 236.133Z" fill="#A9BAE5"/>
<path opacity="0.5" d="M437.668 193.794L426.464 266.954C426.428 267.193 426.346 267.422 426.221 267.628C426.097 267.835 425.933 268.014 425.739 268.157C425.544 268.3 425.324 268.403 425.09 268.46C424.855 268.517 424.612 268.528 424.374 268.491L155.071 227.26C154.834 227.223 154.606 227.139 154.401 227.014C154.196 226.889 154.017 226.725 153.875 226.531C153.734 226.337 153.631 226.116 153.575 225.883C153.518 225.649 153.508 225.407 153.546 225.169L154.173 221.051C165.356 222.766 171.323 214.394 178.828 215.544C186.332 216.693 190.22 221.929 197.243 223.006C204.266 224.082 215.105 207.642 222.786 208.823C223.991 208.998 225.168 209.328 226.288 209.806C229.245 211.039 231.283 213.025 234.022 214.676C236.177 215.982 238.572 216.843 241.066 217.205C250.065 218.574 268.073 186.008 278.514 187.607C280.321 187.933 281.958 188.88 283.144 190.282C289.31 197.003 290.898 213.809 299.594 215.136C310.14 216.756 315.783 199.605 326.015 201.162C336.247 202.72 339.257 220.362 351.099 222.17C362.94 223.978 375.785 191.62 388.086 193.501C400.388 195.383 403.9 212.011 414.591 213.641C426.328 215.439 437.668 193.794 437.668 193.794Z" fill="#B24242"/>
<path d="M432.442 227.803L426.443 266.944C426.408 267.182 426.325 267.411 426.201 267.618C426.076 267.824 425.912 268.004 425.718 268.147C425.523 268.29 425.303 268.393 425.069 268.45C424.834 268.507 424.591 268.517 424.353 268.48L155.071 227.26C154.834 227.223 154.606 227.139 154.401 227.014C154.196 226.889 154.017 226.725 153.875 226.531C153.734 226.337 153.631 226.117 153.575 225.883C153.518 225.649 153.508 225.407 153.546 225.17L153.849 223.152C154.235 222.787 160.579 216.798 167.017 217.78C173.675 218.826 173.696 224.762 182.977 226.142C192.258 227.521 194.965 220.216 208.133 222.233C221.302 224.25 221.26 233.458 234.879 235.548C248.497 237.638 251.308 226.591 261.007 228.075C270.706 229.559 270.027 235.192 275.524 236.029C281.022 236.865 284.22 228.253 290.982 229.287C297.744 230.322 302.918 244.494 310.537 245.665C315.888 246.48 325.346 235.882 335.004 230.197C339.08 227.793 343.208 226.267 347.054 226.863C355.008 228.075 359.648 234.283 364.696 239.31C367.832 242.446 371.207 245.163 375.618 245.842C381.889 246.804 386.707 241.098 391.546 236.081C395.476 231.994 399.437 228.357 404.255 229.089C406.665 229.395 408.996 230.147 411.132 231.305C415.312 233.646 416.41 236.802 421.406 237.575C427.415 238.526 432.442 227.803 432.442 227.803Z" fill="#A9BAE5"/>
<path d="M186.886 121.042L172.421 118.826C172.086 118.775 171.765 118.658 171.476 118.483C171.187 118.308 170.935 118.077 170.735 117.804C170.535 117.532 170.391 117.222 170.311 116.893C170.23 116.565 170.216 116.223 170.268 115.889C170.371 115.213 170.738 114.605 171.289 114.2C171.839 113.794 172.528 113.624 173.205 113.726L187.659 115.941C188.334 116.047 188.94 116.415 189.345 116.965C189.75 117.515 189.922 118.202 189.823 118.878C189.717 119.553 189.349 120.159 188.799 120.564C188.249 120.969 187.562 121.141 186.886 121.042Z" fill="#A9BAE5"/>
<path d="M194.871 118.126H195.101L209.565 120.341C209.771 120.368 209.97 120.435 210.149 120.539C210.329 120.643 210.485 120.782 210.61 120.948C210.847 121.277 210.949 121.685 210.893 122.087C210.834 122.448 210.65 122.777 210.372 123.016C210.095 123.254 209.743 123.388 209.377 123.393H209.137L194.682 121.178C194.476 121.155 194.276 121.089 194.096 120.985C193.916 120.88 193.76 120.74 193.637 120.571C193.468 120.344 193.366 120.074 193.342 119.791C193.318 119.509 193.373 119.225 193.501 118.973C193.629 118.72 193.825 118.508 194.067 118.36C194.309 118.212 194.587 118.135 194.871 118.136V118.126ZM194.871 117.091C194.211 117.074 193.57 117.311 193.081 117.754C192.591 118.196 192.29 118.81 192.241 119.468C192.191 120.126 192.396 120.777 192.814 121.288C193.231 121.799 193.829 122.13 194.484 122.212L208.938 124.428C209.07 124.438 209.203 124.438 209.335 124.428C209.984 124.424 210.608 124.177 211.082 123.734C211.556 123.292 211.847 122.687 211.895 122.04C211.944 121.394 211.748 120.752 211.345 120.244C210.942 119.735 210.363 119.397 209.722 119.296L195.257 117.091C195.129 117.081 194.999 117.081 194.871 117.091Z" fill="#A9BAE5"/>
<path d="M216.923 121.501H217.143L231.597 123.717C231.976 123.78 232.317 123.982 232.554 124.284C232.791 124.586 232.906 124.966 232.877 125.348C232.848 125.731 232.678 126.089 232.398 126.352C232.119 126.615 231.751 126.764 231.367 126.769H231.137L216.672 124.553C216.466 124.528 216.268 124.461 216.088 124.356C215.909 124.252 215.752 124.113 215.627 123.947C215.509 123.785 215.423 123.6 215.377 123.405C215.33 123.209 215.323 123.006 215.355 122.808C215.412 122.449 215.595 122.121 215.87 121.884C216.146 121.647 216.497 121.515 216.86 121.512L216.923 121.501ZM216.86 120.467C216.201 120.45 215.56 120.687 215.07 121.129C214.581 121.572 214.28 122.185 214.23 122.843C214.181 123.501 214.386 124.153 214.803 124.664C215.221 125.175 215.819 125.506 216.474 125.588L230.939 127.804C231.067 127.814 231.197 127.814 231.325 127.804C231.974 127.8 232.597 127.553 233.072 127.11C233.546 126.668 233.837 126.063 233.885 125.416C233.934 124.769 233.737 124.128 233.335 123.619C232.932 123.111 232.353 122.773 231.712 122.672L217.258 120.467C217.125 120.456 216.993 120.456 216.86 120.467Z" fill="#A9BAE5"/>
<path d="M442.12 157.779L442.298 156.65L441.462 156.451C441.443 156.265 441.397 156.082 441.326 155.908L441.974 155.343L441.305 154.424L440.563 154.873C440.418 154.757 440.261 154.659 440.093 154.58L440.145 153.723L439.016 153.556L438.818 154.392C438.636 154.412 438.457 154.454 438.285 154.518L437.71 153.87L436.79 154.549L437.24 155.281C437.124 155.427 437.029 155.589 436.957 155.761L436.1 155.699L435.923 156.827L436.759 157.036C436.778 157.22 436.824 157.399 436.895 157.57L436.247 158.134L436.926 159.054L437.658 158.604C437.804 158.718 437.962 158.816 438.128 158.897L438.076 159.754L439.204 159.921L439.403 159.095C439.588 159.066 439.77 159.021 439.947 158.96L440.511 159.608L441.431 158.928L440.981 158.197C441.095 158.052 441.19 157.894 441.263 157.726L442.12 157.779ZM438.912 158.05C438.652 158.01 438.411 157.894 438.218 157.716C438.024 157.538 437.888 157.307 437.826 157.052C437.764 156.797 437.779 156.529 437.869 156.283C437.959 156.036 438.12 155.822 438.332 155.667C438.544 155.512 438.797 155.424 439.06 155.413C439.322 155.401 439.582 155.468 439.806 155.605C440.03 155.741 440.209 155.941 440.319 156.179C440.43 156.417 440.468 156.683 440.427 156.942C440.401 157.115 440.34 157.28 440.249 157.429C440.159 157.578 440.04 157.707 439.899 157.81C439.758 157.913 439.599 157.987 439.429 158.028C439.26 158.07 439.084 158.077 438.912 158.05Z" fill="#A9BAE5"/>
<path opacity="0.2" d="M279.565 282.148L276.487 281.677L273.104 303.785L276.182 304.256L279.565 282.148Z" fill="#A9BAE5"/>
<path d="M279.058 285.47L275.979 284.999L274.387 295.402L277.466 295.873L279.058 285.47Z" fill="#A9BAE5"/>
<path opacity="0.2" d="M271.802 286.657L268.724 286.186L265.341 308.295L268.419 308.766L271.802 286.657Z" fill="#A9BAE5"/>
<path d="M267.804 292.01L266.21 302.424L269.289 302.895L270.883 292.481L267.804 292.01Z" fill="#A9BAE5"/>
<path opacity="0.2" d="M266.24 281.5L263.157 281.033L259.802 303.175L262.885 303.642L266.24 281.5Z" fill="#A9BAE5"/>
<path d="M264.241 289.68L261.163 289.209L259.569 299.623L262.648 300.094L264.241 289.68Z" fill="#A9BAE5"/>
<path opacity="0.2" d="M285.822 287.567L282.743 287.095L279.36 309.204L282.439 309.675L285.822 287.567Z" fill="#A9BAE5"/>
<path d="M285.325 290.889L282.246 290.417L280.652 300.831L283.731 301.302L285.325 290.889Z" fill="#A9BAE5"/>
<path opacity="0.2" d="M293.739 282.087L290.661 281.615L287.277 303.724L290.356 304.195L293.739 282.087Z" fill="#A9BAE5"/>
<path d="M293.356 284.58L290.278 284.109L288.684 294.523L291.763 294.994L293.356 284.58Z" fill="#A9BAE5"/>
<path opacity="0.2" d="M299.796 288.85L296.717 288.379L293.334 310.488L296.412 310.959L299.796 288.85Z" fill="#A9BAE5"/>
<path d="M299.661 289.687L296.583 289.216L294.989 299.629L298.068 300.101L299.661 289.687Z" fill="#A9BAE5"/>
<path opacity="0.2" d="M308.475 278.349L305.396 277.878L302.013 299.987L305.092 300.458L308.475 278.349Z" fill="#A9BAE5"/>
<path d="M308.36 279.187L305.281 278.716L303.689 289.12L306.768 289.591L308.36 279.187Z" fill="#A9BAE5"/>
<path opacity="0.2" d="M313.27 293.334L310.192 292.863L306.809 314.972L309.887 315.443L313.27 293.334Z" fill="#A9BAE5"/>
<path d="M312.763 296.666L309.684 296.195L308.09 306.609L311.169 307.08L312.763 296.666Z" fill="#A9BAE5"/>
<path opacity="0.2" d="M319.996 295.684L316.918 295.213L313.535 317.321L316.613 317.793L319.996 295.684Z" fill="#A9BAE5"/>
<path d="M318.721 304.015L315.642 303.544L314.049 313.958L317.127 314.429L318.721 304.015Z" fill="#A9BAE5"/>
<path opacity="0.2" d="M329.054 282.849L325.975 282.378L322.592 304.487L325.671 304.958L329.054 282.849Z" fill="#A9BAE5"/>
<path d="M327.643 292.021L324.564 291.55L322.972 301.953L326.051 302.424L327.643 292.021Z" fill="#A9BAE5"/>
<path opacity="0.2" d="M334.478 293.643L331.399 293.172L328.016 315.281L331.094 315.752L334.478 293.643Z" fill="#A9BAE5"/>
<path d="M333.834 297.815L330.756 297.344L329.164 307.747L332.242 308.218L333.834 297.815Z" fill="#A9BAE5"/>
<path opacity="0.2" d="M342.281 288.932L339.202 288.46L335.819 310.569L338.898 311.04L342.281 288.932Z" fill="#A9BAE5"/>
<path d="M342.626 292.325L339.543 291.858L337.963 302.288L341.046 302.755L342.626 292.325Z" fill="#A9BAE5"/>
<path opacity="0.2" d="M350.727 280.058L347.648 279.587L344.265 301.696L347.344 302.167L350.727 280.058Z" fill="#A9BAE5"/>
<path d="M350.716 280.066L347.637 279.595L346.044 290.009L349.123 290.48L350.716 280.066Z" fill="#A9BAE5"/>
<path opacity="0.2" d="M355.51 295.124L352.431 294.653L349.048 316.762L352.127 317.233L355.51 295.124Z" fill="#A9BAE5"/>
<path d="M355.117 297.628L352.038 297.157L350.444 307.571L353.523 308.042L355.117 297.628Z" fill="#A9BAE5"/>
<path opacity="0.2" d="M360.935 305.908L357.856 305.437L354.473 327.546L357.552 328.017L360.935 305.908Z" fill="#A9BAE5"/>
<path d="M360.552 308.402L357.473 307.93L355.88 318.344L358.958 318.815L360.552 308.402Z" fill="#A9BAE5"/>
<path opacity="0.2" d="M369.645 295.265L366.566 294.794L363.183 316.903L366.262 317.374L369.645 295.265Z" fill="#A9BAE5"/>
<path d="M368.38 303.577L365.301 303.106L363.708 313.52L366.786 313.991L368.38 303.577Z" fill="#A9BAE5"/>
<path opacity="0.2" d="M378.486 283.827L375.407 283.356L372.024 305.465L375.103 305.936L378.486 283.827Z" fill="#A9BAE5"/>
<path d="M376.95 293.815L373.871 293.344L372.278 303.758L375.356 304.229L376.95 293.815Z" fill="#A9BAE5"/>
<path opacity="0.2" d="M383.495 297.378L380.417 296.907L377.033 319.015L380.112 319.487L383.495 297.378Z" fill="#A9BAE5"/>
<path d="M383.924 300.722L380.841 300.255L379.26 310.685L382.344 311.152L383.924 300.722Z" fill="#A9BAE5"/>
<path opacity="0.2" d="M389.843 302.12L386.764 301.648L383.381 323.757L386.46 324.228L389.843 302.12Z" fill="#A9BAE5"/>
<path d="M388.453 311.281L385.374 310.81L383.78 321.224L386.859 321.695L388.453 311.281Z" fill="#A9BAE5"/>
<path opacity="0.2" d="M397.825 296.276L394.747 295.805L391.364 317.913L394.442 318.385L397.825 296.276Z" fill="#A9BAE5"/>
<path d="M397.825 296.285L394.746 295.814L393.153 306.228L396.231 306.699L397.825 296.285Z" fill="#A9BAE5"/>
<path opacity="0.2" d="M403.693 304.232L400.614 303.761L397.231 325.869L400.31 326.341L403.693 304.232Z" fill="#A9BAE5"/>
<path d="M403.434 305.897L400.355 305.426L398.761 315.84L401.84 316.311L403.434 305.897Z" fill="#A9BAE5"/>
<path opacity="0.2" d="M411.079 302.308L408 301.837L404.617 323.946L407.696 324.417L411.079 302.308Z" fill="#A9BAE5"/>
<path d="M410.945 303.145L407.866 302.674L406.273 313.087L409.351 313.559L410.945 303.145Z" fill="#A9BAE5"/>
<path opacity="0.2" d="M417.553 306.211L414.475 305.74L411.091 327.849L414.17 328.32L417.553 306.211Z" fill="#A9BAE5"/>
<path d="M416.909 317.034L413.826 316.567L412.246 326.996L415.329 327.464L416.909 317.034Z" fill="#A9BAE5"/>
<path d="M305.771 336.918L247.792 328.046L247.517 329.844L305.496 338.716L305.771 336.918Z" fill="#999999" stroke="#263238" stroke-linecap="round" stroke-linejoin="round"/>
<path opacity="0.2" d="M342.623 210.527C342.623 210.527 334.763 214.885 339.769 226.695C344.776 238.505 375.221 257.924 374.604 267.79C374.604 267.79 343.344 248.309 334.659 259.555C334.659 259.555 358.268 282.454 360.725 299.678C363.181 316.902 371.176 324.542 389.654 334.366C408.132 344.19 448.308 396.03 448.308 396.03L442.298 308.969L383.77 242.916L354.84 226.423L342.623 210.527Z" fill="black" fill-opacity="0.7"/>
<path d="M501.422 365.752L449.896 399.594H449.813C449.765 399.591 449.719 399.575 449.68 399.547C449.641 399.519 449.611 399.481 449.593 399.437C449.363 398.831 426.6 337.993 421.113 333.248C418.023 330.456 415.772 326.859 414.612 322.859C414.612 322.859 414.612 322.807 414.612 322.776C414.414 322.107 414.32 321.668 414.299 321.553C411.268 315.389 406.618 310.165 400.848 306.44C396.99 304.103 392.916 302.143 388.682 300.587C382.202 297.964 375.534 295.257 370.821 290.251C370.013 289.395 369.276 288.476 368.615 287.502C361.122 276.528 349.552 264.415 345.695 261.927C341.839 259.44 334.742 259.774 334.679 259.774C334.622 259.78 334.564 259.764 334.517 259.729C334.471 259.695 334.439 259.643 334.429 259.586C334.303 258.629 334.39 257.657 334.682 256.737C334.975 255.818 335.466 254.974 336.122 254.266C337.106 253.115 338.33 252.192 339.707 251.56C341.084 250.928 342.581 250.604 344.096 250.608C350.054 250.608 358.258 253.744 362.397 257.684C366.536 261.624 376.109 264.519 377.206 264.854C378.764 263.934 382.432 265.899 383.78 266.745C382.181 261.049 382.829 258.854 383.08 258.301C379.652 253.859 361.801 240.711 352.322 234.116C349.709 232.287 347.744 230.98 346.887 230.468C342.466 227.866 338.808 219.724 339.519 214.039C339.553 213.267 339.759 212.512 340.12 211.829C340.481 211.145 340.99 210.551 341.609 210.088C342.498 209.529 343.539 209.263 344.587 209.325C345.013 209.336 345.437 209.389 345.852 209.482C345.894 209.5 345.933 209.525 345.967 209.555C346.051 209.67 354.924 220.195 357.997 221.846C359.502 222.651 367.507 226.695 375.116 230.458L378.544 232.151C378.523 228.837 378.698 225.526 379.067 222.233C379.359 220.937 381.429 219.097 383.78 218.052C384.878 217.55 386.916 216.829 388.41 217.623C388.985 217.947 390.344 218.784 392.225 219.954L395.361 221.898C396.028 220.872 396.845 219.953 397.785 219.17C398.569 218.71 402.907 217.906 404.453 218.449C405.802 218.94 410.128 221.689 414.706 224.595L416.682 225.838C416.922 225.389 417.486 224.448 418.019 224.239C420.279 223.405 422.738 223.274 425.074 223.863C426.621 224.427 431.93 228.347 437.072 232.141C439.894 234.231 442.601 236.227 444.388 237.429C444.448 237.445 444.5 237.482 444.535 237.534C445.047 237.878 445.475 238.15 445.799 238.338C449.583 240.502 458.884 289.289 458.979 289.78C459.585 293.052 461.8 296.427 464.142 300.002C466.791 303.723 468.958 307.765 470.59 312.031C473.569 320.737 480.352 333.478 490.291 349.05C491.19 350.444 492.117 351.876 493.071 353.346C495.757 357.412 498.621 361.655 501.422 365.752Z" fill="white"/>
<path opacity="0.4" d="M386.602 272.316C384.606 273.894 370.12 272.4 368.344 277.27C367.298 280.144 368.072 284.492 370.789 290.23C369.982 289.374 369.244 288.455 368.584 287.481C361.09 276.507 349.521 264.394 345.664 261.906C341.807 259.419 334.742 259.774 334.679 259.774C334.622 259.78 334.564 259.764 334.517 259.729C334.471 259.695 334.439 259.643 334.429 259.586C334.303 258.629 334.39 257.657 334.682 256.737C334.975 255.818 335.466 254.974 336.122 254.266C337.106 253.115 338.33 252.192 339.707 251.56C341.084 250.928 342.581 250.604 344.096 250.608C350.054 250.608 358.258 253.744 362.397 257.684C366.536 261.624 376.109 264.519 377.206 264.854C378.764 263.934 382.432 265.899 383.78 266.745C382.181 261.049 382.829 258.854 383.08 258.301C379.652 253.859 361.801 240.711 352.322 234.116C349.709 232.287 347.744 230.98 346.887 230.468C342.466 227.866 338.808 219.724 339.519 214.039C339.553 213.267 339.759 212.512 340.12 211.829C340.481 211.145 340.99 210.551 341.609 210.088C342.498 209.529 343.539 209.263 344.587 209.325C343.869 209.606 343.204 210.009 342.623 210.517C339.717 212.994 346.646 226.068 350.545 229.684C354.621 233.457 372.953 242.822 379.537 248.403C383.153 251.465 387.898 256.106 387.898 256.106C385.003 261.039 388.546 270.769 386.602 272.316Z" fill="#A9BAE5"/>
<path d="M453.91 192.394C453.91 192.3 453.91 192.279 453.91 192.321C453.917 192.331 453.921 192.344 453.921 192.357C453.921 192.371 453.917 192.383 453.91 192.394Z" fill="#A9BAE5"/>
<path opacity="0.4" d="M490.291 348.998C482.526 341.609 470.966 330.102 468.803 325.054C465.5 317.32 463.295 310.182 459.188 304.977C455.08 299.772 446.75 244.306 444.357 244.15C441.964 243.993 447.367 266.098 447.649 267.226C447.419 266.526 444.43 257.109 441.566 246.376C438.598 235.224 435.599 234.618 435.599 234.618C431.617 235.412 431.596 238.244 429.558 238.203C427.52 238.161 420.528 233.196 420.528 233.196C413.745 234.179 388.295 217.791 388.295 217.791C382.505 218.575 381.147 223.633 386.09 228.378C391.034 233.123 398.423 238.872 398.423 238.872C393.657 241.192 376.161 231.378 376.161 231.378L375.116 230.437L378.544 232.13C378.523 228.817 378.698 225.505 379.067 222.212C379.359 220.916 381.429 219.077 383.78 218.031C384.878 217.53 386.916 216.809 388.41 217.603C388.985 217.927 390.344 218.763 392.225 219.934L395.361 221.878C396.028 220.852 396.845 219.932 397.785 219.15C398.569 218.69 402.907 217.885 404.453 218.429C405.802 218.92 410.129 221.668 414.706 224.574L416.682 225.818C416.922 225.368 417.486 224.428 418.019 224.219C420.279 223.384 422.738 223.253 425.074 223.842C426.621 224.407 431.93 228.326 437.072 232.12C439.894 234.21 442.601 236.206 444.388 237.408C444.448 237.424 444.501 237.461 444.535 237.513C445.047 237.858 445.475 238.13 445.799 238.318C449.583 240.481 458.885 289.268 458.979 289.76C459.585 293.031 461.8 296.407 464.142 299.981C466.792 303.709 468.959 307.758 470.59 312.032C473.569 320.685 480.352 333.426 490.291 348.998Z" fill="#A9BAE5"/>
<path d="M449.813 399.385C449.813 399.385 426.819 337.93 421.27 333.102C417.853 330.013 415.486 325.936 414.497 321.438C411.445 315.213 406.746 309.943 400.91 306.2C390.992 299.667 375.994 297.974 368.741 287.387C361.487 276.8 349.865 264.394 345.748 261.739C341.63 259.084 334.617 259.565 334.617 259.565C333.896 255.447 338.484 250.859 344.023 250.859C349.562 250.859 357.809 253.754 362.167 257.872C366.525 261.99 377.165 265.125 377.165 265.125C378.858 263.913 384.094 267.278 384.094 267.278C382.004 260.203 383.268 258.29 383.268 258.29C379.161 252.73 351.036 232.715 346.929 230.291C342.821 227.866 338.944 219.892 339.665 214.081C339.683 213.359 339.868 212.651 340.205 212.013C340.542 211.374 341.023 210.823 341.609 210.402C342.196 209.98 342.872 209.701 343.584 209.585C344.297 209.469 345.027 209.519 345.716 209.733C345.716 209.733 354.663 220.372 357.809 222.065C360.954 223.759 385.63 236.102 389.257 237.544C390.264 237.973 391.36 238.154 392.451 238.07C393.543 237.987 394.598 237.641 395.528 237.063" stroke="#263238" stroke-linecap="round" stroke-linejoin="round"/>
<path d="M378.774 232.527C378.774 232.527 378.774 224.48 379.297 222.295C379.819 220.111 385.641 216.348 388.295 217.791C390.95 219.233 410.557 232.13 415.668 232.705" stroke="#263238" stroke-linecap="round" stroke-linejoin="round"/>
<path d="M395.434 222.149C396.128 221.088 396.965 220.128 397.921 219.296C398.642 218.867 402.938 218.073 404.391 218.596C407.296 219.641 424.416 231.451 427.311 232.183" stroke="#263238" stroke-linecap="round" stroke-linejoin="round"/>
<path d="M416.765 226.141C416.765 226.141 417.507 224.657 418.103 224.417C420.308 223.599 422.711 223.471 424.99 224.051C427.656 225.023 442.288 236.593 445.674 238.505C449.06 240.418 457.536 283.258 458.738 289.791C459.94 296.323 467.214 302.855 470.35 312.052C473.485 321.249 481 335.275 492.852 353.419C494.942 356.554 497.116 359.867 499.3 363.066" stroke="#263238" stroke-linecap="round" stroke-linejoin="round"/>
<path d="M393.688 249.574C393.688 249.574 394.734 244.672 397.681 242.498C400.628 240.324 404.579 243.773 407.474 244.128" stroke="#263238" stroke-linecap="round" stroke-linejoin="round"/>
<path d="M413.463 241.777C413.463 241.777 415.093 236.143 417.998 234.879C420.904 233.614 425.377 237.419 427.311 237.596" stroke="#263238" stroke-linecap="round" stroke-linejoin="round"/>
<path d="M432.516 236.687C432.516 236.687 434.689 234.596 435.599 234.596C436.508 234.596 440.312 238.578 441.138 238.85C441.964 239.122 442.946 237.627 444.357 237.606" stroke="#263238" stroke-linecap="round" stroke-linejoin="round"/>
<path d="M425.9 231.555C427.489 231.438 429.074 231.829 430.425 232.674" stroke="#263238" stroke-linecap="round" stroke-linejoin="round"/>
<path d="M383.321 258.28C383.321 258.28 381.878 254.559 382.599 252.657" stroke="#263238" stroke-linecap="round" stroke-linejoin="round"/>
<path d="M386.153 230.98C386.153 230.98 387.877 232.997 387.971 234.617C388.066 236.237 392.152 238.202 392.152 238.202" stroke="#263238" stroke-linecap="round" stroke-linejoin="round"/>
<path d="M413.818 232.214C413.818 232.214 416.19 231.367 417.455 232.214" stroke="#263238" stroke-linecap="round" stroke-linejoin="round"/>
<path d="M383.321 263.182C383.24 261.986 383.454 260.789 383.944 259.695C384.434 258.602 385.186 257.646 386.132 256.911" stroke="#263238" stroke-linecap="round" stroke-linejoin="round"/>
<path d="M384.167 267.268C384.167 267.268 381.471 269.588 381.471 271.041" stroke="#263238" stroke-linecap="round" stroke-linejoin="round"/>
<path d="M371.751 263.181C374.949 264.373 377.604 269.348 379.537 270.194" stroke="#263238" stroke-linecap="round" stroke-linejoin="round"/>
<path d="M410.494 247.337C412.428 250.117 416.765 270.33 421.134 276.726" stroke="#263238" stroke-linecap="round" stroke-linejoin="round"/>
<path d="M426.715 241.63C427.081 241.871 429.62 249.73 429.62 249.73" stroke="#263238" stroke-linecap="round" stroke-linejoin="round"/>
<path d="M459.188 291.432C459.824 295.453 460.984 299.374 462.637 303.095" stroke="#263238" stroke-linecap="round" stroke-linejoin="round"/>
<path d="M414.821 322.807C414.497 321.479 413.097 312.773 411.372 309.868" stroke="#263238" stroke-linecap="round" stroke-linejoin="round"/>
<path opacity="0.2" d="M121.919 458.654C121.919 458.654 155.928 412.929 181.576 404.558C207.224 396.186 208.489 384.825 207.444 363.63C206.399 342.434 207.172 321.072 200.128 318.521C193.083 315.971 208.572 288.296 201.173 277.332L152.647 353.565L121.919 458.654Z" fill="black" fill-opacity="0.7"/>
<path d="M113.673 471.395L113.161 471.228L113.893 471.635L113.673 471.395ZM196.344 331.126C192.164 329.172 183.865 320.006 182.831 318.856C188.056 310.056 193.219 301.569 195.006 299.531C198.717 295.351 203.242 283.154 201.403 277.259C199.72 271.845 194.212 272.713 193.46 272.859H193.376C193.348 272.864 193.321 272.874 193.297 272.891C193.274 272.907 193.254 272.928 193.24 272.953C193.125 273.152 181.911 292.059 178.43 296.584C176.769 298.737 172.943 303.639 169.024 308.551L167.864 308.373C165.433 307.995 162.953 308.066 160.548 308.582L160.308 308.666C159.064 309.203 157.865 309.839 156.723 310.568L155.897 310.223C154.246 309.533 150.828 308.206 149.208 308.133C147.233 308.028 140.272 311.268 136.113 313.881C133.245 313.01 130.256 312.604 127.26 312.679C124.072 312.815 117.572 315.459 112.346 317.581C110.026 318.522 108.019 319.337 106.848 319.671L105.803 319.985C102.668 320.915 100.975 321.438 98.8009 325.785C96.5433 330.3 94.1082 347.138 92.9376 355.227L92.7808 356.325C92.3314 359.46 92.4046 364.957 92.4777 370.821C92.5927 378.973 92.7077 387.397 91.4953 390.678C89.8576 394.813 87.6937 398.719 85.0572 402.3C84.7123 402.792 84.3988 403.252 84.1061 403.69C82.4744 406.237 81.1715 408.98 80.2286 411.853C79.3507 414.173 78.2533 416.723 77.1873 419.054C75.2224 423.371 73.3934 426.935 73.3934 426.935C73.3934 426.935 110.444 467.81 113.673 471.395C113.847 471.462 114.025 471.518 114.206 471.562C114.332 471.353 121.167 459.668 128.41 448.141C134.681 438.191 141.192 428.356 143.982 426.098C147.809 422.815 150.592 418.485 151.988 413.64C153.493 408.801 163.098 402.833 172.39 397.064C182.663 390.689 193.292 384.094 193.648 378.638C193.846 375.816 194.494 371.145 195.247 365.72C197.285 351.026 199.814 332.725 196.344 331.126ZM178.744 354.621L174.177 359.063C173.529 355.405 169.087 350.545 168.387 349.803C168.738 348.044 168.965 346.263 169.066 344.473C169.233 342.435 169.411 340.292 169.913 339.947C170.414 339.602 172.724 335.767 176.486 329.496C176.8 333.917 180.667 338.787 181.19 339.487L178.744 354.621Z" fill="white"/>
<path opacity="0.4" d="M124.511 341.044C123.163 353.084 111.363 382.955 111.363 382.955L109.273 352.865C109.273 352.865 100.086 393.699 97.5675 395.172C95.0487 396.646 90.6278 404.453 88.1612 410.651C86.4994 414.831 80.8452 417.674 77.2813 419.106C78.3264 416.775 79.4447 414.225 80.3226 411.905C81.2655 409.032 82.5684 406.289 84.2001 403.743C84.4928 403.304 84.8063 402.844 85.1512 402.352C87.7877 398.771 89.9516 394.865 91.5893 390.73C92.8017 387.428 92.6344 379.004 92.5717 370.873C92.4986 365.009 92.4254 359.47 92.8748 356.377L93.0316 355.279C94.2022 347.19 96.6373 330.352 98.8949 325.837C101.069 321.49 102.783 320.967 105.897 320.037L106.942 319.723C108.113 319.358 110.078 318.542 112.44 317.633C117.666 315.543 124.166 312.867 127.354 312.731C130.334 312.669 133.304 313.082 136.154 313.954C140.335 311.331 147.275 308.101 149.25 308.206C150.87 308.279 154.288 309.606 155.939 310.296C148.999 313.871 137.325 322.483 137.325 322.483C124.125 325.346 124.511 341.044 124.511 341.044Z" fill="#A9BAE5"/>
<path opacity="0.4" d="M147.902 325.053C151.319 322.688 154.86 320.508 158.51 318.521C161.896 316.933 162.983 310.599 160.6 308.812C160.511 308.746 160.407 308.703 160.297 308.687L160.538 308.603C162.943 308.086 165.423 308.015 167.854 308.394C163.474 314.968 160.046 320.005 159.137 321.092C156.127 324.75 147.902 325.053 147.902 325.053Z" fill="#A9BAE5"/>
<path opacity="0.4" d="M165.178 366.305L166.777 366.995C165.805 370.873 165.178 366.305 165.178 366.305Z" fill="#A9BAE5"/>
<path opacity="0.4" d="M196.344 331.126C192.164 329.172 183.865 320.006 182.83 318.856C188.056 310.056 193.219 301.569 195.006 299.531C198.717 295.351 203.242 283.154 201.403 277.259C199.72 271.845 194.212 272.713 193.46 272.859V273.089C193.46 273.089 199.417 273.831 199.406 282.443C199.396 291.055 183.928 308.122 183.928 308.122C183.928 308.122 168.021 337.961 166.976 337.512C165.93 337.063 163.6 357.453 163.6 357.453C163.6 357.453 168.031 361.226 166.976 366.306C166.92 366.556 166.868 366.786 166.819 366.995L173.633 369.932C173.633 369.932 180.468 365.135 183.938 372.19C187.408 379.245 150.577 404.453 147.682 408.185C147.682 408.185 147.275 422.242 141.903 424.311C138.422 425.649 132.287 438.943 128.41 448.151C134.681 438.201 141.192 428.366 143.982 426.109C147.809 422.826 150.592 418.495 151.988 413.651C153.493 408.812 163.098 402.844 172.389 397.075C182.663 390.699 193.292 384.104 193.648 378.649C193.846 375.827 194.494 371.155 195.247 365.731C197.285 351.026 199.814 332.725 196.344 331.126ZM178.744 354.621L174.177 359.063C173.529 355.405 169.087 350.545 168.387 349.803C168.738 348.044 168.965 346.263 169.066 344.473C169.233 342.435 169.411 340.292 169.912 339.947C170.414 339.602 172.724 335.767 176.486 329.496C176.8 333.917 180.667 338.787 181.19 339.487L178.744 354.621Z" fill="#A9BAE5"/>
<path d="M151.779 325.326C154.627 324.714 157.216 323.235 159.189 321.093C162.325 317.571 175.075 301.329 178.608 296.741C182.141 292.153 193.428 273.089 193.428 273.089C193.428 273.089 199.427 271.678 201.194 277.333C202.96 282.987 198.727 294.975 194.839 299.385C190.951 303.796 171.188 338.745 169.756 339.801C168.324 340.856 169.411 350.754 166.62 352.865" stroke="#263238" stroke-linecap="round" stroke-linejoin="round"/>
<path d="M168.136 349.897C168.136 349.897 173.665 355.687 174.02 359.565L178.953 354.736L181.43 339.446C181.43 339.446 176.549 333.572 176.695 328.743" stroke="#263238" stroke-linecap="round" stroke-linejoin="round"/>
<path d="M182.559 318.887C182.559 318.887 191.662 329.213 196.25 331.335C200.838 333.457 194.16 368.396 193.428 378.628C192.697 388.86 154.956 403.314 151.779 413.567C150.403 418.376 147.64 422.673 143.836 425.921C137.712 430.885 114.008 471.458 114.008 471.458" stroke="#263238" stroke-linecap="round" stroke-linejoin="round"/>
<path d="M169.16 308.812C169.16 308.812 163.777 307.819 160.6 308.812C157.423 309.805 143.982 319.347 140.847 321.093C137.712 322.838 133.082 323.183 132.026 325.326" stroke="#263238" stroke-linecap="round" stroke-linejoin="round"/>
<path d="M156.733 310.84C156.733 310.84 151.298 308.478 149.208 308.373C147.118 308.269 138.621 312.272 134.743 315.094C131.762 317.28 128.414 318.915 124.856 319.922" stroke="#263238" stroke-linecap="round" stroke-linejoin="round"/>
<path d="M136.123 314.121C133.273 313.231 130.297 312.811 127.312 312.878C122.714 313.076 110.715 318.72 106.953 319.901C103.19 321.082 101.424 321.187 99.0726 325.9C96.721 330.614 94.129 349.071 93.0734 356.366C92.0178 363.661 93.8991 385.014 91.7775 390.783C89.6558 396.552 86.3845 400.868 84.4092 403.868C80.3854 409.846 80.8348 414.319 73.5083 426.987" stroke="#263238" stroke-linecap="round" stroke-linejoin="round"/>
<path d="M127.605 326.914C123.017 330.98 123.863 338.745 124.47 341.045C125.076 343.344 122.264 352.541 121.334 357.453" stroke="#263238" stroke-linecap="round" stroke-linejoin="round"/>
<path d="M156.733 330.844C148.372 331.021 145.78 336.665 145.237 340.375" stroke="#263238" stroke-linecap="round" stroke-linejoin="round"/>
<path d="M121.428 322.483C118.951 322.305 112.597 326.193 111.363 332.548" stroke="#263238" stroke-linecap="round" stroke-linejoin="round"/>
<path d="M181.43 339.445C181.43 339.445 182.663 335.923 183.897 335.568" stroke="#263238" stroke-linecap="round" stroke-linejoin="round"/>
<path d="M178.953 354.736C178.344 356.807 177.59 358.833 176.695 360.798C175.65 362.888 176.695 366.222 176.695 366.222" stroke="#263238" stroke-linecap="round" stroke-linejoin="round"/>
<path d="M174.02 359.564C173.842 363.097 169.954 366.88 169.16 366.222" stroke="#263238" stroke-linecap="round" stroke-linejoin="round"/>
<path d="M140.784 353.565C140.659 357.453 133.604 385.86 133.604 385.86" stroke="#263238" stroke-linecap="round" stroke-linejoin="round"/>
</svg>
